<svg width="258" height="173" viewBox="0 0 258 173" fill="none" xmlns="http://www.w3.org/2000/svg">
<path d="M15.86 31.96C13.2167 31.96 11.895 33.7493 11.895 37.328V41.171H17.934V46.112H11.895V71H5.734V46.112H1.708V41.476L5.734 41.171V37.389C5.734 34.1763 6.50667 31.655 8.052 29.825C9.59733 27.9543 11.956 27.019 15.128 27.019C16.9173 27.019 18.666 27.3647 20.374 28.056L19.154 32.692C18.056 32.204 16.958 31.96 15.86 31.96ZM30.6015 71.732C24.5015 71.732 21.4515 67.8077 21.4515 59.959V41.171H27.6125V59.166C27.6125 61.728 27.9988 63.5783 28.7715 64.717C29.5848 65.8557 30.8862 66.425 32.6755 66.425C34.0582 66.425 35.2782 66.0793 36.3355 65.388C37.3928 64.6967 38.5722 63.5377 39.8735 61.911V41.171H46.0345V71H40.9715L40.4835 66.486H40.3005C38.8365 68.194 37.3318 69.4953 35.7865 70.39C34.2818 71.2847 32.5535 71.732 30.6015 71.732ZM60.0512 71.732C57.8958 71.732 56.3302 71.0813 55.3542 69.78C54.3782 68.4787 53.8902 66.5673 53.8902 64.046V27.751H60.0512V64.412C60.0512 65.1847 60.1935 65.754 60.4782 66.12C60.7628 66.486 61.1085 66.669 61.5152 66.669C61.8812 66.669 62.2472 66.6283 62.6132 66.547L63.4062 71.183C62.4708 71.549 61.3525 71.732 60.0512 71.732ZM79.6121 31.96C76.9688 31.96 75.6471 33.7493 75.6471 37.328V41.171H81.6861V46.112H75.6471V71H69.4861V46.112H65.4601V41.476L69.4861 41.171V37.389C69.4861 34.1763 70.2588 31.655 71.8041 29.825C73.3495 27.9543 75.7081 27.019 78.8801 27.019C80.6695 27.019 82.4181 27.3647 84.1261 28.056L82.9061 32.692C81.8081 32.204 80.7101 31.96 79.6121 31.96ZM87.1151 41.171H93.2761V71H87.1151V41.171ZM90.2261 35.559C89.1281 35.559 88.2131 35.2133 87.4811 34.522C86.7898 33.8307 86.4441 32.936 86.4441 31.838C86.4441 30.7807 86.7898 29.9063 87.4811 29.215C88.2131 28.5237 89.1281 28.178 90.2261 28.178C91.3241 28.178 92.2188 28.5237 92.9101 29.215C93.6421 29.9063 94.0081 30.7807 94.0081 31.838C94.0081 32.936 93.6421 33.8307 92.9101 34.522C92.2188 35.2133 91.3241 35.559 90.2261 35.559ZM107.279 71.732C105.123 71.732 103.558 71.0813 102.582 69.78C101.606 68.4787 101.118 66.5673 101.118 64.046V27.751H107.279V64.412C107.279 65.1847 107.421 65.754 107.706 66.12C107.99 66.486 108.336 66.669 108.743 66.669C109.109 66.669 109.475 66.6283 109.841 66.547L110.634 71.183C109.698 71.549 108.58 71.732 107.279 71.732ZM121.837 71.732C119.682 71.732 118.116 71.0813 117.14 69.78C116.164 68.4787 115.676 66.5673 115.676 64.046V27.751H121.837V64.412C121.837 65.1847 121.98 65.754 122.264 66.12C122.549 66.486 122.895 66.669 123.301 66.669C123.667 66.669 124.033 66.6283 124.399 66.547L125.192 71.183C124.257 71.549 123.139 71.732 121.837 71.732ZM130.235 41.171H135.298L135.786 45.319H135.969C137.433 43.8143 138.897 42.635 140.361 41.781C141.866 40.8863 143.472 40.439 145.18 40.439C149.288 40.439 152.033 42.269 153.415 45.929C155.083 44.1397 156.669 42.7773 158.173 41.842C159.719 40.9067 161.366 40.439 163.114 40.439C166.164 40.439 168.442 41.4557 169.946 43.489C171.492 45.4817 172.264 48.3893 172.264 52.212V71H166.103V53.005C166.103 50.443 165.697 48.5927 164.883 47.454C164.111 46.3153 162.85 45.746 161.101 45.746C159.068 45.746 156.811 47.1083 154.33 49.833V71H148.169V53.005C148.169 50.443 147.763 48.5927 146.949 47.454C146.177 46.3153 144.916 45.746 143.167 45.746C141.134 45.746 138.877 47.1083 136.396 49.833V71H130.235V41.171ZM203.43 54.53C203.43 55.6687 203.349 56.726 203.186 57.702H183.483C183.768 60.7113 184.785 63.009 186.533 64.595C188.323 66.1403 190.478 66.913 192.999 66.913C195.399 66.913 197.778 66.1607 200.136 64.656L202.271 68.56C199.099 70.6747 195.744 71.732 192.206 71.732C189.482 71.732 187.021 71.1017 184.825 69.841C182.629 68.5803 180.881 66.7707 179.579 64.412C178.319 62.0533 177.688 59.288 177.688 56.116C177.688 52.9847 178.319 50.2397 179.579 47.881C180.881 45.4817 182.568 43.6517 184.642 42.391C186.716 41.0897 188.933 40.439 191.291 40.439C195.155 40.439 198.144 41.72 200.258 44.282C202.373 46.8033 203.43 50.2193 203.43 54.53ZM198.062 53.432C198.062 50.8293 197.493 48.8163 196.354 47.393C195.216 45.9697 193.569 45.258 191.413 45.258C189.543 45.258 187.875 45.9493 186.411 47.332C184.947 48.7147 184.012 50.748 183.605 53.432H198.062ZM208.856 41.171H213.919L214.407 45.319H214.59C216.176 43.7737 217.742 42.574 219.287 41.72C220.873 40.866 222.602 40.439 224.472 40.439C230.572 40.439 233.622 44.3633 233.622 52.212V71H227.461V53.005C227.461 50.443 227.055 48.5927 226.241 47.454C225.469 46.3153 224.188 45.746 222.398 45.746C221.056 45.746 219.857 46.0713 218.799 46.722C217.742 47.332 216.481 48.369 215.017 49.833V71H208.856V41.171ZM251.112 71.732C245.093 71.732 242.084 68.255 242.084 61.301V46.112H237.753V41.476L242.389 41.171L243.121 32.936H248.245V41.171H256.053V46.112H248.245V61.301C248.245 63.131 248.59 64.5137 249.282 65.449C249.973 66.3437 251.091 66.791 252.637 66.791C253.572 66.791 254.65 66.547 255.87 66.059L256.968 70.634C254.772 71.366 252.82 71.732 251.112 71.732Z" fill="#FF9401"/>
<g clip-path="url(#clip0)">
<path d="M154.502 94.421C140.037 105.098 119.052 110.747 100.995 110.747C76.8635 110.879 53.5519 101.998 35.6242 85.8442C34.2745 84.6251 35.4827 82.9489 37.1044 83.8959C57.0223 95.2746 79.569 101.248 102.508 101.224C119.64 101.144 136.589 97.6822 152.38 91.0359C154.85 90.0019 156.897 92.6577 154.502 94.421Z" fill="#FF9900"/>
<path d="M160.521 87.5421C158.671 85.1693 148.287 86.4537 143.629 86.9761C142.214 87.1394 141.996 85.8877 143.27 85.017C151.552 79.1939 165.125 80.8809 166.703 82.8401C168.282 84.7993 166.29 98.4155 158.529 104.902C157.332 105.904 156.2 105.371 156.733 104.054C158.464 99.678 162.371 89.9149 160.521 87.5421Z" fill="#FF9900"/>
</g>
<path d="M7.449 106.757H14.238C19.1567 106.757 21.616 108.431 21.616 111.779C21.616 112.73 21.368 113.618 20.872 114.445C20.376 115.272 19.7147 115.84 18.888 116.15V116.274C20.0247 116.563 20.934 117.111 21.616 117.917C22.298 118.702 22.639 119.746 22.639 121.048C22.639 123.011 21.9157 124.499 20.469 125.512C19.0223 126.504 17.1313 127 14.796 127H7.449V106.757ZM13.99 114.941C15.168 114.941 16.036 114.724 16.594 114.29C17.1727 113.835 17.462 113.205 17.462 112.399C17.462 111.572 17.183 110.973 16.625 110.601C16.067 110.229 15.199 110.043 14.021 110.043H11.696V114.941H13.99ZM14.424 123.714C17.1313 123.714 18.485 122.732 18.485 120.769C18.485 119.839 18.144 119.167 17.462 118.754C16.8007 118.32 15.788 118.103 14.424 118.103H11.696V123.714H14.424ZM28.2488 119.684L22.1418 106.757H26.6988L28.6518 111.593L30.3258 116.057H30.4498C30.5325 115.871 30.6151 115.675 30.6978 115.468C30.7805 115.261 30.8735 115.034 30.9768 114.786C31.4728 113.525 31.8861 112.461 32.2168 111.593L34.1698 106.757H38.6028L32.4958 119.684V127H28.2488V119.684Z" fill="black"/>
<path d="M42.345 121.085H50.65L56.645 137.585C57.195 139.162 57.6717 140.665 58.075 142.095L58.79 144.35H59.01L60 141.215C60.5867 139.235 60.9717 138.025 61.155 137.585L66.985 121.085H75.29V157H68.415V142.755C68.415 140.738 68.6533 137.475 69.13 132.965L69.35 130.82H69.13L66.215 139.235L60.88 153.81H56.59L51.255 139.235L48.395 130.82H48.175L48.395 132.965C48.8717 137.475 49.11 140.738 49.11 142.755V157H42.345V121.085ZM104.541 142.15C104.541 143.543 104.431 144.68 104.211 145.56H87.381C87.7476 147.723 88.6276 149.318 90.021 150.345C91.451 151.372 93.101 151.885 94.971 151.885C96.9143 151.885 98.931 151.28 101.021 150.07L103.496 154.635C102.139 155.588 100.618 156.34 98.931 156.89C97.281 157.403 95.631 157.66 93.981 157.66C91.4143 157.66 89.086 157.092 86.996 155.955C84.9426 154.818 83.311 153.168 82.101 151.005C80.9276 148.842 80.341 146.312 80.341 143.415C80.341 140.555 80.9276 138.043 82.101 135.88C83.311 133.717 84.8876 132.048 86.831 130.875C88.7743 129.702 90.846 129.115 93.046 129.115C96.7493 129.115 99.591 130.325 101.571 132.745C103.551 135.128 104.541 138.263 104.541 142.15ZM98.106 140.555C98.106 138.795 97.7026 137.42 96.896 136.43C96.0893 135.403 94.861 134.89 93.211 134.89C91.8543 134.89 90.6443 135.367 89.581 136.32C88.5543 137.237 87.8576 138.648 87.491 140.555H98.106ZM108.868 129.775H114.973L115.523 134.56H115.743C116.696 132.8 117.851 131.462 119.208 130.545C120.601 129.592 122.013 129.115 123.443 129.115C124.726 129.115 125.79 129.298 126.633 129.665L125.368 136.155C125.258 136.118 124.928 136.045 124.378 135.935C123.828 135.788 123.205 135.715 122.508 135.715C121.335 135.715 120.198 136.137 119.098 136.98C117.998 137.823 117.081 139.143 116.348 140.94V157H108.868V129.775ZM139.993 157.66C137.463 157.66 135.189 157.092 133.173 155.955C131.156 154.818 129.561 153.187 128.388 151.06C127.251 148.897 126.683 146.348 126.683 143.415C126.683 140.482 127.306 137.933 128.553 135.77C129.836 133.607 131.541 131.957 133.668 130.82C135.794 129.683 138.123 129.115 140.653 129.115C143.623 129.115 146.281 130.105 148.628 132.085L145.053 136.925C144.356 136.338 143.696 135.917 143.073 135.66C142.449 135.367 141.789 135.22 141.093 135.22C139.076 135.22 137.444 135.972 136.198 137.475C134.988 138.942 134.383 140.922 134.383 143.415C134.383 145.872 134.969 147.852 136.143 149.355C137.353 150.822 138.911 151.555 140.818 151.555C142.468 151.555 144.191 150.858 145.988 149.465L148.958 154.36C147.674 155.46 146.244 156.285 144.668 156.835C143.128 157.385 141.569 157.66 139.993 157.66ZM152.578 118.335H160.058V127.96L159.728 133.02C161.011 131.81 162.331 130.857 163.688 130.16C165.045 129.463 166.566 129.115 168.253 129.115C171.113 129.115 173.221 130.068 174.578 131.975C175.971 133.845 176.668 136.54 176.668 140.06V157H169.133V140.995C169.133 138.978 168.84 137.567 168.253 136.76C167.703 135.953 166.786 135.55 165.503 135.55C164.476 135.55 163.578 135.77 162.808 136.21C162.038 136.65 161.121 137.383 160.058 138.41V157H152.578V118.335ZM189.174 157.66C186.754 157.66 184.792 156.89 183.289 155.35C181.822 153.81 181.089 151.867 181.089 149.52C181.089 146.623 182.317 144.387 184.774 142.81C187.231 141.197 191.172 140.097 196.599 139.51C196.489 136.577 194.986 135.11 192.089 135.11C190.952 135.11 189.797 135.33 188.624 135.77C187.451 136.21 186.167 136.833 184.774 137.64L182.079 132.69C185.929 130.307 189.742 129.115 193.519 129.115C197.002 129.115 199.642 130.142 201.439 132.195C203.236 134.212 204.134 137.237 204.134 141.27V157H197.974L197.424 154.14H197.259C194.546 156.487 191.851 157.66 189.174 157.66ZM191.649 151.83C192.566 151.83 193.391 151.628 194.124 151.225C194.894 150.785 195.719 150.143 196.599 149.3V144.075C193.629 144.478 191.502 145.083 190.219 145.89C188.936 146.697 188.294 147.705 188.294 148.915C188.294 149.868 188.587 150.602 189.174 151.115C189.761 151.592 190.586 151.83 191.649 151.83ZM209.877 129.775H215.982L216.532 133.295H216.752C218.072 132.012 219.428 131.003 220.822 130.27C222.252 129.5 223.828 129.115 225.552 129.115C228.412 129.115 230.52 130.068 231.877 131.975C233.27 133.845 233.967 136.54 233.967 140.06V157H226.432V140.995C226.432 138.978 226.138 137.567 225.552 136.76C225.002 135.953 224.085 135.55 222.802 135.55C221.775 135.55 220.877 135.77 220.107 136.21C219.337 136.65 218.42 137.383 217.357 138.41V157H209.877V129.775ZM249.936 157.66C246.783 157.66 244.473 156.762 243.006 154.965C241.54 153.132 240.806 150.583 240.806 147.32V135.715H237.011V130.105L241.191 129.775L242.071 122.515H248.286V129.775H254.941V135.715H248.286V147.265C248.286 150.235 249.496 151.72 251.916 151.72C252.686 151.72 253.585 151.537 254.611 151.17L255.821 156.67C253.841 157.33 251.88 157.66 249.936 157.66Z" fill="black"/>
<defs>
<clipPath id="clip0">
<rect width="249.043" height="110.78" fill="white"/>
</clipPath>
</defs>
</svg>
