<svg width="254" height="179" viewBox="0 0 254 179" fill="none" xmlns="http://www.w3.org/2000/svg">
<path d="M11.773 161.732C9.17033 161.732 7.05567 160.959 5.429 159.414C3.80233 157.828 2.989 155.713 2.989 153.07C2.989 149.857 4.41233 147.397 7.259 145.689C10.1057 143.94 14.64 142.72 20.862 142.029C20.7807 137.637 18.8693 135.441 15.128 135.441C12.6067 135.441 9.73967 136.458 6.527 138.491L4.209 134.343C8.27567 131.74 12.2813 130.439 16.226 130.439C19.8453 130.439 22.5497 131.537 24.339 133.733C26.1283 135.888 27.023 138.999 27.023 143.066V161H21.96L21.472 157.584H21.289C17.995 160.349 14.823 161.732 11.773 161.732ZM13.664 156.852C14.9247 156.852 16.104 156.567 17.202 155.998C18.3 155.429 19.52 154.534 20.862 153.314V145.933C16.5513 146.462 13.481 147.275 11.651 148.373C9.86167 149.471 8.967 150.894 8.967 152.643C8.967 154.026 9.394 155.083 10.248 155.815C11.102 156.506 12.2407 156.852 13.664 156.852ZM42.4403 161.732C40.4476 161.732 38.4549 161.346 36.4623 160.573C34.4696 159.8 32.7209 158.804 31.2163 157.584L34.1443 153.619C35.5676 154.717 36.9503 155.571 38.2923 156.181C39.6343 156.75 41.0779 157.035 42.6233 157.035C44.3313 157.035 45.6326 156.669 46.5273 155.937C47.4219 155.164 47.8693 154.188 47.8693 153.009C47.8693 151.789 47.3203 150.833 46.2223 150.142C45.1243 149.41 43.4773 148.637 41.2813 147.824C38.6379 146.848 36.5436 145.73 34.9983 144.469C33.4529 143.168 32.6803 141.399 32.6803 139.162C32.6803 136.6 33.6359 134.506 35.5473 132.879C37.4586 131.252 40.0409 130.439 43.2943 130.439C46.7916 130.439 50.0043 131.598 52.9323 133.916L50.0653 137.759C48.9266 136.905 47.8286 136.254 46.7713 135.807C45.7139 135.36 44.5956 135.136 43.4163 135.136C41.8303 135.136 40.6103 135.482 39.7563 136.173C38.9429 136.864 38.5363 137.759 38.5363 138.857C38.5363 139.67 38.8209 140.362 39.3903 140.931C39.9596 141.46 40.6103 141.887 41.3423 142.212C42.1149 142.537 43.3146 143.005 44.9413 143.615C46.7306 144.266 48.2149 144.937 49.3943 145.628C50.6143 146.279 51.6309 147.173 52.4443 148.312C53.2983 149.451 53.7253 150.894 53.7253 152.643C53.7253 154.351 53.2779 155.896 52.3833 157.279C51.5293 158.621 50.2483 159.699 48.5403 160.512C46.8323 161.325 44.7989 161.732 42.4403 161.732ZM66.8879 161.732C64.8953 161.732 62.9026 161.346 60.9099 160.573C58.9173 159.8 57.1686 158.804 55.6639 157.584L58.5919 153.619C60.0153 154.717 61.3979 155.571 62.7399 156.181C64.0819 156.75 65.5256 157.035 67.0709 157.035C68.7789 157.035 70.0803 156.669 70.9749 155.937C71.8696 155.164 72.3169 154.188 72.3169 153.009C72.3169 151.789 71.7679 150.833 70.6699 150.142C69.5719 149.41 67.9249 148.637 65.7289 147.824C63.0856 146.848 60.9913 145.73 59.4459 144.469C57.9006 143.168 57.1279 141.399 57.1279 139.162C57.1279 136.6 58.0836 134.506 59.9949 132.879C61.9063 131.252 64.4886 130.439 67.7419 130.439C71.2393 130.439 74.4519 131.598 77.3799 133.916L74.5129 137.759C73.3743 136.905 72.2763 136.254 71.2189 135.807C70.1616 135.36 69.0433 135.136 67.8639 135.136C66.2779 135.136 65.0579 135.482 64.2039 136.173C63.3906 136.864 62.9839 137.759 62.9839 138.857C62.9839 139.67 63.2686 140.362 63.8379 140.931C64.4073 141.46 65.0579 141.887 65.7899 142.212C66.5626 142.537 67.7623 143.005 69.3889 143.615C71.1783 144.266 72.6626 144.937 73.8419 145.628C75.0619 146.279 76.0786 147.173 76.8919 148.312C77.7459 149.451 78.1729 150.894 78.1729 152.643C78.1729 154.351 77.7256 155.896 76.8309 157.279C75.9769 158.621 74.6959 159.699 72.9879 160.512C71.2799 161.325 69.2466 161.732 66.8879 161.732ZM95.1786 161.732C92.6979 161.732 90.3799 161.102 88.2246 159.841C86.0693 158.58 84.3409 156.771 83.0396 154.412C81.7789 152.053 81.1486 149.288 81.1486 146.116C81.1486 142.903 81.7789 140.118 83.0396 137.759C84.3409 135.4 86.0489 133.591 88.1636 132.33C90.3189 131.069 92.6573 130.439 95.1786 130.439C97.6999 130.439 100.018 131.069 102.133 132.33C104.288 133.591 105.996 135.4 107.257 137.759C108.558 140.118 109.209 142.903 109.209 146.116C109.209 149.288 108.558 152.053 107.257 154.412C105.996 156.771 104.288 158.58 102.133 159.841C99.9773 161.102 97.6593 161.732 95.1786 161.732ZM95.1786 156.669C97.5373 156.669 99.4079 155.713 100.791 153.802C102.173 151.85 102.865 149.288 102.865 146.116C102.865 142.944 102.153 140.382 100.73 138.43C99.3469 136.478 97.4966 135.502 95.1786 135.502C92.8606 135.502 90.9899 136.478 89.5666 138.43C88.1839 140.382 87.4926 142.944 87.4926 146.116C87.4926 149.288 88.1839 151.85 89.5666 153.802C90.9493 155.713 92.8199 156.669 95.1786 156.669ZM127.136 161.732C124.452 161.732 122.033 161.122 119.877 159.902C117.722 158.641 116.014 156.832 114.753 154.473C113.533 152.114 112.923 149.329 112.923 146.116C112.923 142.903 113.594 140.118 114.936 137.759C116.278 135.4 118.068 133.591 120.304 132.33C122.541 131.069 124.981 130.439 127.624 130.439C130.878 130.439 133.785 131.578 136.347 133.855L133.297 137.881C132.403 137.108 131.528 136.519 130.674 136.112C129.82 135.705 128.905 135.502 127.929 135.502C125.367 135.502 123.273 136.478 121.646 138.43C120.06 140.382 119.267 142.944 119.267 146.116C119.267 149.288 120.04 151.85 121.585 153.802C123.171 155.713 125.225 156.669 127.746 156.669C129.983 156.669 132.159 155.754 134.273 153.924L136.835 158.011C135.493 159.231 133.968 160.166 132.26 160.817C130.593 161.427 128.885 161.732 127.136 161.732ZM141.47 131.171H147.631V161H141.47V131.171ZM144.581 125.559C143.483 125.559 142.568 125.213 141.836 124.522C141.145 123.831 140.799 122.936 140.799 121.838C140.799 120.781 141.145 119.906 141.836 119.215C142.568 118.524 143.483 118.178 144.581 118.178C145.679 118.178 146.574 118.524 147.265 119.215C147.997 119.906 148.363 120.781 148.363 121.838C148.363 122.936 147.997 123.831 147.265 124.522C146.574 125.213 145.679 125.559 144.581 125.559ZM162.569 161.732C159.967 161.732 157.852 160.959 156.225 159.414C154.599 157.828 153.785 155.713 153.785 153.07C153.785 149.857 155.209 147.397 158.055 145.689C160.902 143.94 165.436 142.72 171.658 142.029C171.577 137.637 169.666 135.441 165.924 135.441C163.403 135.441 160.536 136.458 157.323 138.491L155.005 134.343C159.072 131.74 163.078 130.439 167.022 130.439C170.642 130.439 173.346 131.537 175.135 133.733C176.925 135.888 177.819 138.999 177.819 143.066V161H172.756L172.268 157.584H172.085C168.791 160.349 165.619 161.732 162.569 161.732ZM164.46 156.852C165.721 156.852 166.9 156.567 167.998 155.998C169.096 155.429 170.316 154.534 171.658 153.314V145.933C167.348 146.462 164.277 147.275 162.447 148.373C160.658 149.471 159.763 150.894 159.763 152.643C159.763 154.026 160.19 155.083 161.044 155.815C161.898 156.506 163.037 156.852 164.46 156.852ZM194.234 161.732C188.215 161.732 185.206 158.255 185.206 151.301V136.112H180.875V131.476L185.511 131.171L186.243 122.936H191.367V131.171H199.175V136.112H191.367V151.301C191.367 153.131 191.713 154.514 192.404 155.449C193.095 156.344 194.214 156.791 195.759 156.791C196.694 156.791 197.772 156.547 198.992 156.059L200.09 160.634C197.894 161.366 195.942 161.732 194.234 161.732ZM226.865 144.53C226.865 145.669 226.784 146.726 226.621 147.702H206.918C207.203 150.711 208.22 153.009 209.968 154.595C211.758 156.14 213.913 156.913 216.434 156.913C218.834 156.913 221.213 156.161 223.571 154.656L225.706 158.56C222.534 160.675 219.179 161.732 215.641 161.732C212.917 161.732 210.456 161.102 208.26 159.841C206.064 158.58 204.316 156.771 203.014 154.412C201.754 152.053 201.123 149.288 201.123 146.116C201.123 142.985 201.754 140.24 203.014 137.881C204.316 135.482 206.003 133.652 208.077 132.391C210.151 131.09 212.368 130.439 214.726 130.439C218.59 130.439 221.579 131.72 223.693 134.282C225.808 136.803 226.865 140.219 226.865 144.53ZM221.497 143.432C221.497 140.829 220.928 138.816 219.789 137.393C218.651 135.97 217.004 135.258 214.848 135.258C212.978 135.258 211.31 135.949 209.846 137.332C208.382 138.715 207.447 140.748 207.04 143.432H221.497ZM240.404 161.732C238.412 161.732 236.419 161.346 234.426 160.573C232.434 159.8 230.685 158.804 229.18 157.584L232.108 153.619C233.532 154.717 234.914 155.571 236.256 156.181C237.598 156.75 239.042 157.035 240.587 157.035C242.295 157.035 243.597 156.669 244.491 155.937C245.386 155.164 245.833 154.188 245.833 153.009C245.833 151.789 245.284 150.833 244.186 150.142C243.088 149.41 241.441 148.637 239.245 147.824C236.602 146.848 234.508 145.73 232.962 144.469C231.417 143.168 230.644 141.399 230.644 139.162C230.644 136.6 231.6 134.506 233.511 132.879C235.423 131.252 238.005 130.439 241.258 130.439C244.756 130.439 247.968 131.598 250.896 133.916L248.029 137.759C246.891 136.905 245.793 136.254 244.735 135.807C243.678 135.36 242.56 135.136 241.38 135.136C239.794 135.136 238.574 135.482 237.72 136.173C236.907 136.864 236.5 137.759 236.5 138.857C236.5 139.67 236.785 140.362 237.354 140.931C237.924 141.46 238.574 141.887 239.306 142.212C240.079 142.537 241.279 143.005 242.905 143.615C244.695 144.266 246.179 144.937 247.358 145.628C248.578 146.279 249.595 147.173 250.408 148.312C251.262 149.451 251.689 150.894 251.689 152.643C251.689 154.351 251.242 155.896 250.347 157.279C249.493 158.621 248.212 159.699 246.504 160.512C244.796 161.325 242.763 161.732 240.404 161.732Z" fill="#FF9401"/>
<g clip-path="url(#clip0)">
<path d="M154.502 94.421C140.037 105.098 119.052 110.747 100.995 110.747C76.8635 110.879 53.5519 101.998 35.6242 85.8442C34.2745 84.6251 35.4827 82.9489 37.1044 83.8959C57.0223 95.2746 79.569 101.248 102.508 101.224C119.64 101.144 136.589 97.6822 152.38 91.0359C154.85 90.0019 156.897 92.6577 154.502 94.421Z" fill="#FF9900"/>
<path d="M160.521 87.5421C158.671 85.1693 148.287 86.4537 143.629 86.9761C142.214 87.1394 141.996 85.8877 143.27 85.017C151.552 79.1939 165.125 80.8809 166.703 82.8401C168.282 84.7993 166.29 98.4155 158.529 104.902C157.332 105.904 156.2 105.371 156.733 104.054C158.464 99.678 162.371 89.9149 160.521 87.5421Z" fill="#FF9900"/>
<path d="M143.955 43.9289V38.2799C143.951 38.09 143.985 37.9012 144.055 37.7249C144.126 37.5486 144.232 37.3884 144.366 37.2541C144.5 37.1198 144.661 37.0141 144.837 36.9435C145.013 36.8729 145.202 36.8387 145.392 36.8432H170.731C170.921 36.8373 171.11 36.87 171.288 36.9391C171.465 37.0083 171.627 37.1126 171.763 37.2457C171.899 37.3789 172.007 37.5381 172.08 37.714C172.154 37.8898 172.191 38.0786 172.189 38.2691V43.1126C172.189 43.9289 171.503 44.9846 170.284 46.6717L157.147 65.4144C162.152 65.1408 167.139 66.2119 171.59 68.5164C171.985 68.7303 172.318 69.0437 172.554 69.4255C172.791 69.8073 172.924 70.2443 172.94 70.6933V76.7231C172.94 77.5504 172.026 78.5191 171.079 78.0184C166.94 75.8813 162.349 74.7661 157.691 74.7661C153.033 74.7661 148.443 75.8813 144.304 78.0184C143.422 78.4864 142.497 77.5395 142.497 76.7123V71.0524C142.417 69.6917 142.747 68.3384 143.444 67.1668L158.682 45.3982H145.414C145.22 45.4044 145.026 45.3705 144.846 45.2986C144.665 45.2268 144.502 45.1186 144.365 44.9808C144.228 44.843 144.121 44.6784 144.051 44.4975C143.98 44.3165 143.948 44.1229 143.955 43.9289V43.9289Z" fill="black"/>
<path d="M51.537 79.2374H43.8309C43.4824 79.2211 43.1512 79.0803 42.8976 78.8406C42.644 78.601 42.4847 78.2784 42.4486 77.9313V38.367C42.4529 38.1755 42.4948 37.9866 42.572 37.8113C42.6493 37.636 42.7603 37.4776 42.8988 37.3452C43.0373 37.2128 43.2005 37.1089 43.3791 37.0396C43.5577 36.9703 43.7482 36.9368 43.9398 36.9412H51.156C51.5125 36.9507 51.853 37.0915 52.1121 37.3365C52.3712 37.5816 52.5307 37.9136 52.5601 38.2691V43.4282H52.7016C54.5737 38.4323 58.1437 36.1031 62.8457 36.1031C67.5477 36.1031 70.6933 38.4323 72.8484 43.4282C73.5643 41.5441 74.7677 39.8839 76.3353 38.6172C77.903 37.3505 79.7789 36.5226 81.7713 36.2182C83.7637 35.9138 85.8012 36.1438 87.6756 36.8847C89.55 37.6255 91.1942 38.8507 92.44 40.435C94.889 43.7656 94.3883 48.5873 94.3883 52.8431V77.8116C94.3841 78.0031 94.3421 78.192 94.2649 78.3673C94.1876 78.5426 94.0766 78.701 93.9381 78.8334C93.7997 78.9658 93.6365 79.0697 93.4578 79.139C93.2792 79.2083 93.0887 79.2418 92.8972 79.2374H85.1367C84.7679 79.2208 84.4194 79.0639 84.1625 78.7989C83.9056 78.5339 83.7596 78.1807 83.7544 77.8116V56.8376C83.8627 54.3649 83.79 51.8875 83.5367 49.4254C82.9598 46.7588 81.2401 46.0078 79.0088 46.0078C78.0057 46.0404 77.0344 46.3673 76.2157 46.948C75.3971 47.5286 74.7673 48.3372 74.4048 49.273C73.6103 51.2757 73.6864 54.6063 73.6864 56.892V77.8116C73.6822 78.0031 73.6403 78.192 73.563 78.3673C73.4858 78.5426 73.3748 78.701 73.2363 78.8334C73.0978 78.9658 72.9346 79.0697 72.756 79.139C72.5774 79.2083 72.3868 79.2418 72.1953 79.2374H64.4892C64.1243 79.2155 63.7812 79.0562 63.5289 78.7918C63.2765 78.5273 63.1335 78.1771 63.1287 77.8116V56.8376C63.1287 52.4295 63.8471 45.9533 58.3832 45.9533C52.9193 45.9533 53.0608 52.2771 53.0608 56.8376V77.8116C53.0566 78.006 53.0136 78.1976 52.9344 78.3751C52.8551 78.5526 52.7411 78.7125 52.5991 78.8454C52.4571 78.9782 52.29 79.0813 52.1076 79.1487C51.9252 79.216 51.7312 79.2462 51.537 79.2374Z" fill="black"/>
<path d="M193.99 36.114C205.43 36.114 211.612 45.9098 211.612 58.4267C211.612 70.4974 204.776 80.0755 193.99 80.0755C182.768 80.0755 176.652 70.2797 176.652 58.0131C176.652 45.7465 182.856 36.114 193.99 36.114ZM194.066 44.1901C188.385 44.1901 188.026 51.9288 188.026 56.7614C188.026 61.594 187.96 71.9123 194.001 71.9123C200.042 71.9123 200.27 63.5858 200.27 58.5029C200.394 54.9681 200.006 51.4339 199.117 48.0105C198.878 46.8714 198.235 45.8572 197.307 45.155C196.378 44.4529 195.227 44.1101 194.066 44.1901V44.1901Z" fill="black"/>
<path d="M226.458 79.2374H218.774C218.405 79.2208 218.056 79.0639 217.799 78.7989C217.542 78.5339 217.397 78.1807 217.391 77.8116V38.2364C217.432 37.8748 217.606 37.5414 217.88 37.3017C218.154 37.0621 218.508 36.9335 218.872 36.9412H226.023C226.338 36.9497 226.642 37.0604 226.89 37.2567C227.137 37.453 227.314 37.7242 227.394 38.0296V44.0813H227.481C229.658 38.6391 232.662 36.0922 237.984 36.0922C239.778 35.9945 241.566 36.3766 243.164 37.1992C244.761 38.0218 246.11 39.2552 247.073 40.7724C249.086 43.9398 249.086 49.2622 249.086 53.0934V77.9857C249.033 78.3375 248.854 78.6578 248.581 78.8863C248.308 79.1148 247.962 79.2358 247.606 79.2265H239.878C239.541 79.2101 239.221 79.0775 238.971 78.8513C238.721 78.6251 238.557 78.3192 238.507 77.9857V56.5111C238.507 52.1574 239.007 45.8554 233.685 45.8554C232.715 45.8974 231.778 46.2187 230.986 46.7806C230.195 47.3424 229.582 48.121 229.223 49.0227C228.276 51.4003 227.86 53.956 228.003 56.5111V77.8116C227.998 78.0074 227.953 78.2002 227.872 78.3785C227.791 78.5569 227.675 78.7172 227.531 78.85C227.387 78.9829 227.218 79.0856 227.034 79.1521C226.849 79.2187 226.654 79.2477 226.458 79.2374Z" fill="black"/>
<path d="M137.479 71.9776C136.064 70.0293 134.573 68.4511 134.573 64.8375V52.8649C134.573 47.771 134.932 43.069 131.188 39.5969C128.238 36.7561 123.33 35.7548 119.574 35.7548C112.238 35.7548 104.054 38.4976 102.334 47.5533C102.298 47.7354 102.3 47.923 102.339 48.1043C102.379 48.2857 102.455 48.4571 102.563 48.608C102.671 48.7589 102.809 48.8861 102.968 48.9817C103.127 49.0774 103.304 49.1395 103.488 49.1642L110.954 49.9696C111.3 49.9089 111.617 49.7385 111.858 49.4837C112.099 49.2288 112.251 48.9031 112.293 48.5547C112.935 45.4309 115.558 43.9289 118.486 43.9289C119.32 43.8847 120.152 44.0439 120.91 44.3928C121.669 44.7417 122.331 45.2698 122.84 45.9316C123.928 47.5207 123.776 49.6866 123.776 51.5261V52.5274C119.302 53.0281 113.468 53.3655 109.278 55.1941C106.776 56.1912 104.643 57.9375 103.172 60.1939C101.701 62.4502 100.963 65.1062 101.06 67.7981C101.06 75.8089 106.111 79.7707 112.598 79.7707C118.04 79.7707 121.077 78.4755 125.3 74.1653C126.45 76.1311 127.947 77.8718 129.719 79.3027C130.004 79.4611 130.332 79.5282 130.656 79.4952C130.981 79.4621 131.288 79.3304 131.536 79.1177C133.071 77.7463 135.89 75.3191 137.446 74.0021C137.715 73.7359 137.869 73.3749 137.876 72.9965C137.882 72.6181 137.739 72.2524 137.479 71.9776ZM122.317 68.5708C121.824 69.5797 121.069 70.4374 120.131 71.0541C119.193 71.6707 118.106 72.0235 116.984 72.0756C114.024 72.0756 112.293 69.8225 112.293 66.4811C112.293 59.9505 118.181 58.7206 123.754 58.7206V60.3859C123.754 63.3464 123.83 65.8498 122.317 68.5708Z" fill="black"/>
<path d="M36.4405 71.9885C35.0364 70.0402 33.5344 68.462 33.5344 64.8484V52.8757C33.5344 47.7819 33.8936 43.0799 30.1494 39.6078C27.2107 36.7344 22.2801 35.733 18.5032 35.733C11.1673 35.733 2.98229 38.4759 1.26258 47.5316C1.22677 47.7137 1.22861 47.9012 1.26797 48.0826C1.30733 48.2639 1.38338 48.4353 1.49145 48.5862C1.59952 48.7371 1.73732 48.8643 1.89637 48.96C2.05542 49.0556 2.23237 49.1177 2.41631 49.1424L9.88291 49.9479C10.2285 49.8872 10.5453 49.7168 10.7864 49.4619C11.0276 49.2071 11.1802 48.8813 11.2217 48.5329C11.8638 45.4091 14.487 43.9071 17.4148 43.9071C18.2485 43.8629 19.0804 44.0221 19.8389 44.371C20.5974 44.7199 21.2596 45.248 21.7685 45.9098C22.857 47.4989 22.7046 49.6649 22.7046 51.5043V52.5057C18.2311 53.0064 12.3972 53.3438 8.20674 55.1723C5.70836 56.1706 3.57921 57.916 2.11029 60.17C0.641371 62.424 -0.0956352 65.0767 2.97251e-06 67.7654C2.97251e-06 75.7762 5.0503 79.7381 11.5373 79.7381C16.9795 79.7381 20.0162 78.4429 24.2501 74.1327C25.4 76.0986 26.8973 77.8393 28.6691 79.2701C28.9493 79.4319 29.2719 79.5051 29.5945 79.4798C29.9171 79.4545 30.2244 79.3321 30.4759 79.1286V79.1286C32.0106 77.7572 34.8296 75.33 36.3861 74.013C36.6581 73.7497 36.8161 73.3903 36.8263 73.0118C36.8364 72.6334 36.698 72.2661 36.4405 71.9885ZM21.2679 68.5708C20.775 69.5797 20.0198 70.4374 19.0815 71.0541C18.1431 71.6707 17.0562 72.0235 15.9346 72.0756C12.9849 72.0756 11.2434 69.8225 11.2434 66.4811C11.2434 59.9505 17.1318 58.7206 22.7046 58.7206V60.3859C22.7155 63.3464 22.7808 65.8498 21.2679 68.5708Z" fill="black"/>
</g>
<defs>
<clipPath id="clip0">
<rect width="249.043" height="110.78" fill="white"/>
</clipPath>
</defs>
</svg>
