<svg id="Layer_1" data-name="Layer 1" xmlns="http://www.w3.org/2000/svg" viewBox="0 0 228.81 101.78">
  <defs>
    <style>
      .cls-1 {
        fill: #f90;
      }
    </style>
  </defs>
  <title>fba</title>
  <g>
    <path d="M8.95,18.66H5.49V0h11.8V2.88H8.95V8h6.56v2.8H8.95Z"/>
    <path d="M33.92,0V12a10.1,10.1,0,0,1-.55,3.74A4.94,4.94,0,0,1,31.26,18a7.23,7.23,0,0,1-3.82,1,7.64,7.64,0,0,1-3.75-.82,4.78,4.78,0,0,1-2.11-2.25,8.91,8.91,0,0,1-.64-3.65V0h3.43V12q0,2.46,1,3.23a3.89,3.89,0,0,0,2.4.77,3.68,3.68,0,0,0,2.52-.83q.94-.83.94-3.18V0Z"/>
    <path d="M50.65,18.66H39.16V0H42.7V15.61h7.94Z"/>
    <path d="M58,18.66H54.52V0h11.8V2.88H58V8h6.56v2.8H58Z"/>
    <path d="M73.5,18.66H70.14V0H73.5V18.66Z"/>
    <path d="M90.49,18.66H79V0h3.54V15.61h7.94v3.05Z"/>
    <path d="M105.85,18.66H94.36V0H97.9V15.61h7.94v3.05Z"/>
    <path d="M128,18.66H124.6V2.32l-5.17,16.34h-1.76L112.47,2.32V18.66h-2.75V0H115l3.91,12,3.84-12H128V18.66Z"/>
    <path d="M145.67,18.66H133.54V0h12V2.77h-8.64V7.83h6.95v2.71h-6.95v5.22h8.76v2.9Z"/>
    <path d="M164.07,18.66H160.8L153.72,6.74l-.53-.89L152.68,5V18.66H150V0h3.72l6.54,11,1.19,2V0h2.65V18.66Z"/>
    <path d="M176.09,18.66h-3.61V2.88h-5V0h13.53V2.88h-5V18.66Z"/>
    <path d="M192.9,18.66V0h7.27a10.38,10.38,0,0,1,3.06.38,4.15,4.15,0,0,1,2.1,1.6,4.72,4.72,0,0,1,.89,2.86,4.21,4.21,0,0,1-.9,2.69A4,4,0,0,1,202.84,9a4.69,4.69,0,0,1,3,1.6,4.61,4.61,0,0,1,1,3,5,5,0,0,1-1.42,3.63,5.79,5.79,0,0,1-4.35,1.47Zm3.19-10.83h4.1a2.64,2.64,0,0,0,2-.75,2.63,2.63,0,0,0,.73-1.91,2.2,2.2,0,0,0-.83-1.89,3.24,3.24,0,0,0-2-.61h-4Zm0,8h4.35a3.12,3.12,0,0,0,2.18-.73,2.51,2.51,0,0,0,.8-2,2.51,2.51,0,0,0-.81-1.93,3,3,0,0,0-2.15-.75h-4.36v5.36h0Z"/>
    <path d="M218.31,18.66h-3.57V10.79L208.38,0h4.07l4.43,7.7L221.13,0h3.23l-6,10.79v7.88Z"/>
  </g>
  <g>
    <path class="cls-1" d="M141.95,86.75c-13.29,9.81-32.57,15-49.16,15A89,89,0,0,1,32.73,78.87c-1.24-1.12-.13-2.66,1.36-1.79A120.88,120.88,0,0,0,94.18,93,119.54,119.54,0,0,0,140,83.64C142.27,82.69,144.15,85.13,141.95,86.75Z"/>
    <path class="cls-1" d="M147.48,80.43c-1.7-2.18-11.24-1-15.52-.52-1.3.15-1.5-1-.33-1.8,7.61-5.35,20.08-3.8,21.53-2s-.38,14.31-7.51,20.27c-1.1.92-2.14.43-1.65-.78C145.59,91.58,149.18,82.61,147.48,80.43Z"/>
  </g>
  <path d="M132.26,40.36V35.17a1.29,1.29,0,0,1,1.32-1.32h23.28a1.3,1.3,0,0,1,1.34,1.31v4.45c0,.75-.63,1.72-1.75,3.27L144.38,60.1a25.8,25.8,0,0,1,13.27,2.85,2.37,2.37,0,0,1,1.24,2v5.54c0,.76-.84,1.65-1.71,1.19a26.81,26.81,0,0,0-24.6,0c-.81.43-1.66-.44-1.66-1.2V65.28a6.27,6.27,0,0,1,.87-3.57l14-20H133.6A1.3,1.3,0,0,1,132.26,40.36Z"/>
  <path d="M47.35,72.8H40.27A1.34,1.34,0,0,1,39,71.6V35.25a1.34,1.34,0,0,1,1.37-1.31H47a1.33,1.33,0,0,1,1.29,1.22v4.74h.13c1.72-4.59,5-6.73,9.32-6.73s7.21,2.14,9.19,6.73a10.46,10.46,0,0,1,18-2.75c2.25,3.06,1.79,7.49,1.79,11.4V71.49a1.34,1.34,0,0,1-1.37,1.31H78.22a1.33,1.33,0,0,1-1.27-1.31V52.22a46.61,46.61,0,0,0-.2-6.81c-.53-2.45-2.11-3.14-4.16-3.14a4.7,4.7,0,0,0-4.23,3c-.73,1.84-.66,4.9-.66,7V71.49a1.34,1.34,0,0,1-1.37,1.31H59.25A1.33,1.33,0,0,1,58,71.49V52.22c0-4.05.66-10-4.36-10s-4.89,5.81-4.89,10V71.49A1.34,1.34,0,0,1,47.35,72.8Z"/>
  <path d="M178.23,33.18c10.51,0,16.19,9,16.19,20.5,0,11.09-6.28,19.89-16.19,19.89-10.31,0-15.93-9-15.93-20.27S168,33.18,178.23,33.18Zm.07,7.42c-5.22,0-5.55,7.11-5.55,11.55s-.06,13.92,5.49,13.92S184,58.42,184,53.75a33.65,33.65,0,0,0-1.06-9.64A4.43,4.43,0,0,0,178.3,40.6Z"/>
  <path d="M208.06,72.8H201a1.33,1.33,0,0,1-1.27-1.31V35.13a1.34,1.34,0,0,1,1.36-1.19h6.57a1.34,1.34,0,0,1,1.26,1v5.56H209c2-5,4.76-7.34,9.65-7.34A9.29,9.29,0,0,1,227,37.46c1.85,2.91,1.85,7.8,1.85,11.32V71.65a1.34,1.34,0,0,1-1.36,1.14h-7.1a1.34,1.34,0,0,1-1.26-1.14V51.92c0-4,.46-9.79-4.43-9.79a4.63,4.63,0,0,0-4.1,2.91,16.15,16.15,0,0,0-1.12,6.88V71.49A1.35,1.35,0,0,1,208.06,72.8Z"/>
  <path d="M126.31,66.13c-1.3-1.79-2.67-3.24-2.67-6.56v-11c0-4.68.33-9-3.11-12.19-2.71-2.61-7.22-3.53-10.67-3.53-6.74,0-14.26,2.52-15.84,10.84a1.25,1.25,0,0,0,1.06,1.48l6.86.74a1.5,1.5,0,0,0,1.23-1.3c.59-2.87,3-4.25,5.69-4.25a4.73,4.73,0,0,1,4,1.84c1,1.46.86,3.45.86,5.14v.92c-4.11.46-9.47.77-13.32,2.45a12,12,0,0,0-7.55,11.58c0,7.36,4.64,11,10.6,11,5,0,7.79-1.19,11.67-5.15a17.29,17.29,0,0,0,4.06,4.72,1.47,1.47,0,0,0,1.67-.17l0,0c1.41-1.26,4-3.49,5.43-4.7A1.33,1.33,0,0,0,126.31,66.13ZM112.38,63a5.75,5.75,0,0,1-4.9,3.22c-2.72,0-4.31-2.07-4.31-5.14,0-6,5.41-7.13,10.53-7.13v1.53C113.7,58.2,113.77,60.5,112.38,63Z"/>
  <path d="M33.48,66.14c-1.29-1.79-2.67-3.24-2.67-6.56v-11c0-4.68.33-9-3.11-12.19C25,33.75,20.47,32.83,17,32.83c-6.74,0-14.26,2.52-15.84,10.84a1.25,1.25,0,0,0,1.06,1.48l6.86.74a1.5,1.5,0,0,0,1.23-1.3c.59-2.87,3-4.25,5.69-4.25a4.73,4.73,0,0,1,4,1.84c1,1.46.86,3.45.86,5.14v.92c-4.11.46-9.47.77-13.32,2.45A12,12,0,0,0,0,62.26c0,7.36,4.64,11,10.6,11,5,0,7.79-1.19,11.68-5.15a17.28,17.28,0,0,0,4.06,4.72A1.47,1.47,0,0,0,28,72.7l0,0c1.41-1.26,4-3.49,5.43-4.7A1.33,1.33,0,0,0,33.48,66.14ZM19.54,63a5.75,5.75,0,0,1-4.9,3.22c-2.71,0-4.31-2.07-4.31-5.14,0-6,5.41-7.13,10.53-7.13v1.53C20.87,58.2,20.93,60.5,19.54,63Z"/>
</svg>
