<?xml version="1.0" encoding="utf-8"?>
<!-- Generator: Adobe Illustrator 16.0.4, SVG Export Plug-In . SVG Version: 6.00 Build 0)  -->
<!DOCTYPE svg PUBLIC "-//W3C//DTD SVG 1.1//EN" "http://www.w3.org/Graphics/SVG/1.1/DTD/svg11.dtd">
<svg version="1.1" id="Layer_1" xmlns="http://www.w3.org/2000/svg" xmlns:xlink="http://www.w3.org/1999/xlink" x="0px" y="0px"
	 width="172px" height="150px" viewBox="0 0 172 150" enable-background="new 0 0 172 150" xml:space="preserve">
<g>
	
		<path fill="none" stroke="#F7AE05" stroke-width="3.9786" stroke-linecap="round" stroke-linejoin="round" stroke-miterlimit="10" d="
		M143.979,130.861c0,4.955-4.021,8.98-8.98,8.98H14.314c-4.96,0-8.979-4.025-8.979-8.98V11.627c0-4.959,4.019-8.978,8.979-8.978
		h120.684c4.96,0,8.98,4.018,8.98,8.978V130.861z"/>
	<g>
		<defs>
			<path id="SVGID_1_" d="M143.979,130.861c0,4.955-4.021,8.98-8.98,8.98H14.314c-4.96,0-8.979-4.025-8.979-8.98V11.627
				c0-4.959,4.019-8.978,8.979-8.978h120.684c4.96,0,8.98,4.018,8.98,8.978V130.861z"/>
		</defs>
		<use xlink:href="#SVGID_1_"  overflow="visible" fill="#F7AD00"/>
		<clipPath id="SVGID_2_">
			<use xlink:href="#SVGID_1_"  overflow="visible"/>
		</clipPath>
		<path clip-path="url(#SVGID_2_)" fill="#FFFFFF" d="M143.25,39.438c-71.713,23.696-137.188,0-137.188,0h-8.63V-3.809h154.5V38.63
			L143.25,39.438z"/>
	</g>
	<g>
		<polygon fill="#FFFFFF" points="24.102,60.827 24.102,117.633 30.599,117.633 30.529,99.829 31.589,99.829 46.213,117.775 
			54.694,117.775 37.103,96.225 53.209,78.914 45.371,78.914 32.723,92.34 30.952,92.34 30.952,60.827 		"/>
		<path fill="#FFFFFF" d="M86.559,60.827h-6.855v17.878c0,0-25.858-1.84-25.858,20.063c0,0-0.988,19.497,20.35,19.497
			c0,0,6.498,0.289,12.433-2.471L86.559,60.827z M79.704,112.053c0,0-19.497,4.139-19.57-13.252
			c-0.069-17.385,19.57-13.598,19.57-13.598V112.053z"/>
		<path fill="#FFFFFF" d="M94.191,80.399v57.017h6.43v-19.57c0,0,25.714,4.026,25.643-19.925
			C126.195,73.967,94.191,80.399,94.191,80.399z M100.83,112.053v-26.85c0,0,19.643-3.787,19.57,13.598
			C120.33,116.191,100.83,112.053,100.83,112.053z"/>
	</g>
	<g>
		<path fill-rule="evenodd" clip-rule="evenodd" fill="#F7AD00" d="M85.543,35.756c-0.632,0.481-1.306,0.917-1.985,1.305v-2.032
			c0.388-0.144,0.825-0.338,1.209-0.486C85.64,34.158,86.413,35.129,85.543,35.756L85.543,35.756z M90.139,32.369
			c0-0.391-0.098-0.677-0.193-0.824c-0.438-0.533-3.629-1.013-6.387-0.191v1.504c1.693-0.153,3.674-0.199,4.163,0.429
			c0.676,0.823-0.775,4.403-1.404,5.954c-0.193,0.482,0.242,0.672,0.677,0.338c2.179-1.841,3.1-5.176,3.146-6.92V32.369z
			 M83.558,37.061c-5.08,3.046-11.657,4.645-17.367,4.645c-9.192,0-17.415-3.388-23.657-9.047c-0.538-0.438-0.101-1.064,0.527-0.726
			c6.729,3.922,15.047,6.29,23.663,6.29c5.417,0,11.271-1.017,16.834-3.193V37.061L83.558,37.061z M83.558,31.354
			c-0.769,0.241-1.45,0.579-2.079,1.016c-0.481,0.335-0.387,0.771,0.097,0.722c0.532-0.093,1.213-0.145,1.982-0.233V31.354z"/>
		<path fill-rule="evenodd" clip-rule="evenodd" fill="#1C1B1A" d="M99.861,30.577v-2.902c2.083-0.047,2.178-3.048,2.178-4.838
			c0-1.208-0.045-2.661-0.434-3.819c-0.289-0.97-0.871-1.356-1.744-1.405v-2.908c4.066,0.05,6.291,3.582,6.291,8.083
			C106.152,27.143,103.687,30.532,99.861,30.577L99.861,30.577z M111.522,30.29h-2.757c-0.293-0.049-0.532-0.241-0.532-0.535V15.482
			c0.048-0.29,0.239-0.486,0.532-0.486h2.613c0.24,0,0.434,0.197,0.486,0.44v2.176h0.046c0.773-1.982,1.888-2.908,3.823-2.908
			c1.209,0,2.468,0.439,3.24,1.698c0.725,1.161,0.725,3.047,0.725,4.451v8.949c-0.05,0.246-0.239,0.487-0.53,0.487h-2.808
			c-0.242-0.049-0.482-0.241-0.482-0.487v-7.693c0-1.594,0.192-3.869-1.742-3.869c-0.677,0-1.307,0.437-1.644,1.161
			c-0.389,0.873-0.435,1.742-0.435,2.708v7.646C112.059,30.048,111.812,30.29,111.522,30.29z M81.72,17.517v-2.035
			c0-0.29,0.243-0.535,0.532-0.535h9.146c0.289,0,0.529,0.245,0.529,0.535v1.741c0,0.294-0.24,0.679-0.677,1.309l-4.741,6.773
			c1.742-0.049,3.629,0.24,5.227,1.11c0.338,0.243,0.434,0.537,0.485,0.823v2.13c0,0.29-0.339,0.627-0.679,0.482
			c-2.855-1.499-6.582-1.643-9.679,0c-0.338,0.198-0.676-0.193-0.676-0.482v-2.033c0-0.289,0-0.87,0.338-1.399l5.517-7.889h-4.791
			C81.963,18.047,81.72,17.856,81.72,17.517L81.72,17.517z M99.861,14.705v2.908l0,0c-2.075,0-2.178,2.805-2.178,4.548
			c0,1.787-0.045,5.514,2.132,5.514c0.046,0,0.046,0,0.046,0v2.902c0,0,0,0-0.046,0c-4.065,0-6.288-3.53-6.288-7.935
			c0-4.452,2.273-7.938,6.288-7.938C99.861,14.705,99.861,14.705,99.861,14.705L99.861,14.705z M72.334,30.24v-2.566
			c0.631-0.147,1.161-0.581,1.548-1.259c0.532-0.967,0.532-1.836,0.532-2.948v-0.581c-0.725,0-1.449,0.044-2.081,0.191v-2.224
			c0.726-0.094,1.452-0.146,2.081-0.193v-0.386c0-0.679,0.049-1.452-0.34-2.034c-0.337-0.482-1.015-0.723-1.597-0.723
			c-0.049,0-0.095,0-0.144,0v-2.955c0.194,0,0.389,0,0.582,0c1.35,0,3.096,0.386,4.158,1.401c1.352,1.26,1.258,2.953,1.258,4.797
			v4.352c0,1.304,0.529,1.888,1.019,2.563c0.192,0.24,0.239,0.534,0,0.728c-0.534,0.483-1.549,1.353-2.132,1.838l0,0
			c-0.19,0.144-0.435,0.144-0.675,0.049c-0.921-0.777-1.064-1.116-1.596-1.841C74.031,29.419,73.253,29.947,72.334,30.24z
			 M72.334,14.562v2.955c-1.018,0.095-1.836,0.628-2.077,1.693c-0.053,0.239-0.247,0.482-0.486,0.529l-2.708-0.338
			c-0.246-0.05-0.488-0.191-0.39-0.579C67.255,15.773,69.82,14.705,72.334,14.562L72.334,14.562z M72.334,20.854v2.224
			c-1.162,0.34-2.077,1.063-2.077,2.615c0,1.207,0.626,2.033,1.692,2.033c0.145,0,0.241-0.052,0.385-0.052v2.566
			c-0.582,0.144-1.208,0.241-1.983,0.241c-2.32,0-4.16-1.452-4.16-4.308c0-2.275,1.209-3.821,2.951-4.545
			C70.062,21.188,71.22,20.998,72.334,20.854L72.334,20.854z M35.759,30.24v-2.566c0.627-0.147,1.21-0.581,1.547-1.259
			c0.581-0.967,0.535-1.836,0.535-2.948l0,0v-0.581c-0.729,0-1.456,0.044-2.083,0.191v-2.224c0.723-0.094,1.447-0.146,2.083-0.193
			v-0.386c0-0.679,0.046-1.452-0.343-2.034c-0.338-0.482-0.966-0.723-1.547-0.723c-0.096,0-0.145,0-0.193,0v-2.955
			c0.193,0,0.389,0,0.583,0c1.353,0,3.094,0.386,4.205,1.401c1.354,1.26,1.214,2.953,1.214,4.797v4.352
			c0,1.304,0.526,1.888,1.061,2.563c0.146,0.24,0.196,0.534-0.046,0.728c-0.535,0.483-1.549,1.353-2.131,1.838l0,0
			c-0.19,0.144-0.434,0.144-0.677,0.049c-0.918-0.777-1.063-1.116-1.595-1.841C37.451,29.419,36.68,29.947,35.759,30.24
			L35.759,30.24z M48.289,30.29h-2.804C45.188,30.24,45,30.048,45,29.803V15.532c0-0.29,0.241-0.536,0.532-0.536h2.564
			c0.289,0,0.532,0.247,0.532,0.486v1.89h0.048c0.678-1.84,1.933-2.668,3.677-2.668c1.742,0,2.852,0.828,3.629,2.668
			c0.677-1.84,2.177-2.668,3.82-2.668c1.207,0,2.468,0.488,3.241,1.55c0.871,1.213,0.725,2.956,0.725,4.505v8.995
			c0,0.293-0.242,0.535-0.578,0.535h-2.758c-0.293-0.049-0.487-0.241-0.487-0.535v-7.546c0-0.58,0.051-2.127-0.094-2.659
			c-0.195-0.972-0.823-1.263-1.644-1.263c-0.679,0-1.354,0.438-1.643,1.163c-0.293,0.727-0.293,1.938-0.293,2.759v7.546
			c0,0.293-0.24,0.535-0.53,0.535h-2.808c-0.247-0.049-0.483-0.241-0.483-0.535v-7.546c0-1.598,0.236-3.968-1.697-3.968
			c-2.03,0-1.936,2.326-1.936,3.968v7.546C48.819,30.048,48.58,30.29,48.289,30.29z M35.759,14.562v2.955
			c-0.967,0.095-1.839,0.628-2.08,1.693c-0.048,0.239-0.196,0.482-0.484,0.529l-2.712-0.338c-0.192-0.05-0.481-0.191-0.386-0.579
			C30.676,15.773,33.289,14.705,35.759,14.562L35.759,14.562z M35.759,20.854v2.224c-1.163,0.34-2.08,1.063-2.08,2.615
			c0,1.207,0.631,2.033,1.696,2.033c0.143,0,0.288-0.052,0.384-0.052v2.566c-0.585,0.144-1.21,0.241-1.985,0.241
			c-2.32,0-4.159-1.452-4.159-4.308c0-2.275,1.207-3.821,3-4.545C33.532,21.188,34.645,20.998,35.759,20.854z"/>
	</g>
	<g>
		<g>
			<path fill="#1C1B1A" d="M136.438,119.307c-0.002-0.008-0.007,0.001-0.015-0.001c0.57,7.531,1.139,15.06,1.707,22.589
				c0.01,0.157,0,0.321,0.052,0.462c0.058,0.165,0.154,0.405,0.273,0.43c0.161,0.038,0.405-0.062,0.526-0.188
				c0.354-0.368,0.672-0.78,1-1.171c2.496-2.977,4.992-5.95,7.496-8.931c0.665-0.799,1.094-0.748,1.584,0.19
				c0.835,1.579,1.662,3.158,2.484,4.742c0.594,1.145,1.176,2.295,1.77,3.434c0.471,0.911,0.967,1.814,1.432,2.723
				c0.871,1.702,1.714,3.415,2.599,5.101c0.354,0.676,1.085,0.827,1.757,0.474c1.14-0.606,2.295-1.178,3.436-1.775
				c0.729-0.39,1.461-0.766,2.162-1.195c0.568-0.344,0.733-0.913,0.462-1.498c-0.44-0.946-0.894-1.876-1.376-2.798
				c-0.485-0.935-1.033-1.842-1.512-2.784c-0.99-1.922-1.948-3.854-2.938-5.772c-0.821-1.604-1.671-3.191-2.504-4.78
				c-0.431-0.824-0.204-1.253,0.688-1.325c2.807-0.235,5.62-0.462,8.426-0.692c1.568-0.126,3.141-0.237,4.702-0.38
				c0.221-0.022,0.426-0.202,0.631-0.315c-0.102-0.19-0.165-0.435-0.319-0.58c-0.403-0.379-0.848-0.725-1.277-1.079
				c-1.389-1.147-2.766-2.295-4.152-3.445c-1.387-1.143-2.775-2.293-4.151-3.446c-1.14-0.956-2.253-1.947-3.393-2.898
				c-1.004-0.832-2.042-1.621-3.042-2.455c-1.051-0.867-2.068-1.772-3.119-2.641c-0.951-0.793-1.932-1.548-2.889-2.338
				c-0.459-0.373-0.876-0.793-1.328-1.167c-0.863-0.709-1.752-1.379-2.607-2.089c-1.075-0.893-2.114-1.829-3.188-2.721
				c-0.979-0.812-1.992-1.577-2.967-2.389c-1.01-0.84-1.994-1.721-3.017-2.556c-0.239-0.197-0.577-0.272-0.875-0.407
				c-0.075,0.314-0.237,0.633-0.216,0.942C135.294,104.151,135.87,111.729,136.438,119.307z"/>
			<path fill="#1C1B1A" stroke="#FFFFFE" stroke-width="1.5914" stroke-miterlimit="10" d="M136.438,119.307
				c-0.568-7.578-1.145-15.155-1.698-22.731c-0.021-0.31-0.113-0.807,0.216-0.942c0.288-0.13,0.636,0.21,0.875,0.407
				c1.022,0.835,2.007,1.716,3.017,2.556c0.975,0.812,1.988,1.577,2.967,2.389c1.073,0.892,2.112,1.828,3.188,2.721
				c0.855,0.71,1.744,1.38,2.607,2.089c0.452,0.374,0.869,0.794,1.328,1.167c0.957,0.79,1.938,1.545,2.889,2.338
				c1.051,0.868,2.068,1.773,3.119,2.641c1,0.834,2.038,1.623,3.042,2.455c1.14,0.951,2.253,1.942,3.393,2.898
				c1.376,1.153,2.765,2.304,4.151,3.446c1.387,1.15,2.764,2.298,4.152,3.445c0.43,0.354,0.874,0.7,1.277,1.079
				c0.154,0.146,0.218,0.39,0.319,0.58c-0.205,0.113-0.41,0.293-0.631,0.315c-1.562,0.143-3.134,0.254-4.702,0.38
				c-2.806,0.23-5.619,0.457-8.426,0.692c-0.893,0.072-1.119,0.501-0.688,1.325c0.833,1.589,1.683,3.177,2.504,4.78
				c0.99,1.919,1.948,3.851,2.938,5.772c0.479,0.942,1.026,1.85,1.512,2.784c0.482,0.922,0.936,1.852,1.376,2.798
				c0.271,0.585,0.106,1.154-0.462,1.498c-0.701,0.43-1.434,0.806-2.162,1.195c-1.141,0.598-2.296,1.169-3.436,1.775
				c-0.672,0.354-1.402,0.202-1.757-0.474c-0.885-1.686-1.728-3.398-2.599-5.101c-0.465-0.908-0.961-1.812-1.432-2.723
				c-0.594-1.139-1.176-2.289-1.77-3.434c-0.822-1.584-1.649-3.163-2.484-4.742c-0.49-0.938-0.919-0.989-1.584-0.19
				c-2.504,2.98-5,5.954-7.496,8.931c-0.328,0.391-0.646,0.803-1,1.171c-0.121,0.126-0.365,0.226-0.526,0.188
				c-0.119-0.024-0.216-0.265-0.273-0.43c-0.052-0.141-0.042-0.305-0.052-0.462c-0.568-7.529-1.137-15.058-1.707-22.589
				C136.432,119.308,136.437,119.299,136.438,119.307z"/>
		</g>
	</g>
</g>
</svg>
