<?xml version="1.0" encoding="UTF-8"?>
<svg width="101px" height="49px" viewBox="0 0 101 49" version="1.1" xmlns="http://www.w3.org/2000/svg" xmlns:xlink="http://www.w3.org/1999/xlink">
    <!-- Generator: Sketch 55.2 (78181) - https://sketchapp.com -->
    <title>Logo-Dark</title>
    <desc>Created with Sketch.</desc>
    <g id="Logo-Dark" stroke="none" stroke-width="1" fill="none" fill-rule="evenodd">
        <g id="Imported-Layers">
            <path d="M68.1645442,43.113875 C63.1990338,46.7674375 55.9998373,48.7105938 49.8010127,48.7105938 C41.1130334,48.7105938 33.2897564,45.50875 27.3689266,40.1789792 C26.904066,39.7604375 27.3187544,39.1882604 27.877304,39.5128854 C34.2650422,43.2185104 42.1640895,45.4505625 50.322701,45.4505625 C55.8262825,45.4505625 61.8761264,44.3118229 67.4426791,41.9577812 C68.2822952,41.6025312 68.9862417,42.5095417 68.1645442,43.113875" id="Fill-1" fill="#111111"></path>
            <path d="M70.230819,40.7623854 C69.5954754,39.9513333 66.0322263,40.3780417 64.431836,40.5689375 C63.9470089,40.627125 63.8717506,40.2050104 64.3089654,39.8987604 C67.1508613,37.9081354 71.808683,38.483375 72.3498259,39.1494687 C72.8950644,39.8216875 72.2069888,44.4771979 69.5427434,46.6990417 C69.1331745,47.0405104 68.7435721,46.8582917 68.9253183,46.4065729 C69.5243128,44.914625 70.8666747,41.5734375 70.230819,40.7623854" id="Fill-2" fill="#111111"></path>
            <path d="M64.5449794,25.8383125 L64.5449794,23.9043438 C64.5460034,23.6098333 64.7681945,23.4133229 65.0364621,23.4143438 L73.7310969,23.4133229 C74.0090917,23.4133229 74.2317948,23.6149375 74.2323067,23.9017917 L74.2317948,25.5606458 C74.2297469,25.8388229 73.9947568,26.2017292 73.5775085,26.7779896 L69.073787,33.1888229 C70.7458519,33.1495208 72.5141654,33.3991146 74.0331539,34.2504896 C74.3756558,34.4424063 74.4672969,34.7267083 74.4944308,35.0053958 L74.4944308,37.0690104 C74.4944308,37.3533125 74.1821346,37.6825313 73.8544795,37.5110313 C71.177947,36.1135104 67.6264731,35.9608958 64.6678501,37.527875 C64.3652811,37.6886563 64.0488892,37.3645417 64.0488892,37.0797292 L64.0488892,35.1181979 C64.0488892,34.8042917 64.0545207,34.2673333 64.3724486,33.7890729 L69.5903557,26.3257604 L65.0472132,26.32525 C64.7692184,26.32525 64.5465153,26.1277188 64.5449794,25.8383125" id="Fill-3" fill="#111111"></path>
            <path d="M32.8295034,37.9178333 L30.1847125,37.9178333 C29.9328276,37.9015 29.731627,37.7126458 29.7111485,37.4717292 L29.7131964,23.9370104 C29.7131964,23.6664896 29.941531,23.4500729 30.2236215,23.4500729 L32.6866662,23.4490521 C32.9446946,23.4623229 33.1515269,23.6567917 33.1679096,23.9038333 L33.1679096,25.6708958 L33.2175698,25.6708958 C33.859569,23.9620208 35.069333,23.1642396 36.6989051,23.1642396 C38.3530513,23.1642396 39.3897725,23.9620208 40.1310921,25.6708958 C40.7725793,23.9620208 42.2296205,23.1642396 43.7849582,23.1642396 C44.8959137,23.1642396 46.1061897,23.6200417 46.8464854,24.6454688 C47.6861015,25.7847188 47.5135707,27.4369375 47.5135707,28.8890729 L47.5115228,37.4303854 C47.5115228,37.7009063 47.2831882,37.9178333 47.0016096,37.9178333 L44.3593785,37.9178333 C44.0936707,37.9009896 43.8842787,37.6912083 43.8842787,37.4314063 L43.8837667,30.2564792 C43.8837667,29.6868542 43.9334269,28.2627917 43.8095323,27.7212396 C43.6124273,26.8101458 43.0195764,26.5539167 42.2541946,26.5539167 C41.6121954,26.5539167 40.9456221,26.9811354 40.6737708,27.6645833 C40.4024315,28.3480313 40.4270056,29.4872813 40.4270056,30.2564792 L40.4270056,37.4303854 C40.4270056,37.7009063 40.1986709,37.9178333 39.9170924,37.9178333 L37.2748613,37.9178333 C37.0096655,37.9009896 36.8002734,37.6912083 36.8002734,37.4314063 L36.7972016,30.2564792 C36.7972016,28.7466667 37.0444788,26.5253333 35.1681415,26.5253333 C33.2667181,26.5253333 33.3409525,28.6900104 33.3409525,30.2564792 L33.3399285,37.4303854 C33.3399285,37.7009063 33.1115939,37.9178333 32.8295034,37.9178333" id="Fill-4" fill="#111111"></path>
            <path d="M81.7171775,23.1642396 C85.642895,23.1642396 87.7659975,26.5253333 87.7659975,30.7975208 C87.7659975,34.9273021 85.4207039,38.2026458 81.7171775,38.2026458 C77.8651825,38.2026458 75.7661421,34.8420625 75.7661421,30.6551146 C75.7661421,26.4395833 77.8897566,23.1642396 81.7171775,23.1642396 L81.7171775,23.1642396 Z M81.7417517,25.927125 C79.790668,25.927125 79.6672854,28.5756771 79.6672854,30.2278958 C79.6672854,31.8796042 79.6427113,35.4116875 81.7171775,35.4116875 C83.7665577,35.4116875 83.8648542,32.5630521 83.8648542,30.8261042 C83.8648542,29.6868542 83.8157059,28.3194479 83.4701322,27.2373646 C83.1737068,26.2971771 82.5808558,25.927125 81.7417517,25.927125 L81.7417517,25.927125 Z" id="Fill-5" fill="#111111"></path>
            <path d="M92.8574503,37.9178333 L90.2223867,37.9178333 C89.9571909,37.9009896 89.7472868,37.6912083 89.7472868,37.4314063 L89.7431912,23.8915833 C89.7657174,23.6440313 89.9848368,23.4500729 90.2515685,23.4500729 L92.7048859,23.4490521 C92.9357804,23.4613021 93.1262299,23.6185104 93.1748662,23.8282917 L93.1748662,25.8985417 L93.2250384,25.8985417 C93.9653341,24.0472604 95.0020552,23.1642396 96.8292443,23.1642396 C98.0144341,23.1642396 99.1750499,23.5914583 99.9158575,24.7592917 C100.607517,25.8418854 100.607517,27.6645833 100.607517,28.9748229 L100.607517,37.491125 C100.577823,37.7315313 100.361776,37.9178333 100.100675,37.9178333 L97.4487172,37.9178333 C97.2039998,37.9020104 97.0063828,37.7223438 96.977713,37.491125 L96.977713,30.1426563 C96.977713,28.6614271 97.1507558,26.49675 95.3235668,26.49675 C94.6810556,26.49675 94.0887167,26.9239688 93.7928032,27.5793438 C93.4221434,28.4046875 93.3724832,29.2310521 93.3724832,30.1426563 L93.3724832,37.4303854 C93.3678755,37.7009063 93.1395409,37.9178333 92.8574503,37.9178333" id="Fill-6" fill="#111111"></path>
            <path d="M57.6135386,31.4539167 C57.6135386,32.4818958 57.6386247,33.3378646 57.1189842,34.2515104 C56.6981522,34.9936563 56.030043,35.4504792 55.2876994,35.4504792 C54.2729926,35.4504792 53.6791178,34.6792396 53.6791178,33.5379479 C53.6791178,31.2916042 55.7003401,30.8832708 57.6135386,30.8832708 L57.6135386,31.4539167 L57.6135386,31.4539167 Z M60.2803438,37.8836354 C60.1052531,38.0403333 59.8528563,38.0510521 59.6552393,37.9453958 C58.7772261,37.2170312 58.6195421,36.8806667 58.1393226,36.1880312 C56.687401,37.662625 55.6588712,38.1046458 53.7784382,38.1046458 C51.5514076,38.1046458 49.8194433,36.7346875 49.8194433,33.9947708 C49.8194433,31.8535729 50.9821069,30.3978646 52.6398368,29.6843021 C54.0753756,29.0564896 56.0797032,28.9421563 57.6135386,28.7711667 L57.6135386,28.4286771 C57.6135386,27.8003542 57.6631988,27.0582083 57.292027,26.5161458 C56.9705155,26.0307396 56.3520665,25.8306563 55.8073399,25.8306563 C54.7987766,25.8306563 53.9018208,26.3461771 53.6811656,27.4144792 C53.6356011,27.6523333 53.4615343,27.887125 53.2219365,27.899375 L50.6580355,27.6227292 C50.441476,27.5737292 50.2008543,27.4006979 50.2633135,27.0714792 C50.8525807,23.9701875 53.6611991,23.0335729 56.1785117,23.0335729 C57.4650699,23.0335729 59.1478859,23.3760625 60.1620808,24.3463646 C61.4491509,25.5453333 61.3252563,27.1439583 61.3252563,28.8849896 L61.3252563,32.9938437 C61.3252563,34.2295625 61.8402891,34.771625 62.3240923,35.4377187 C62.4925275,35.6776146 62.5309246,35.9629375 62.314877,36.1380104 C61.7747581,36.5897292 60.8148311,37.4211979 60.2864873,37.8897604 L60.2803438,37.8836354 L60.2803438,37.8836354 Z" id="Fill-7" fill="#111111"></path>
            <path d="M22.9384156,31.4539167 C22.9384156,32.4818958 22.9635017,33.3378646 22.4438612,34.2515104 C22.0230292,34.9936563 21.35492,35.4504792 20.6125764,35.4504792 C19.5983816,35.4504792 19.0045067,34.6792396 19.0045067,33.5379479 C19.0045067,31.2916042 21.0252171,30.8832708 22.9384156,30.8832708 L22.9384156,31.4539167 L22.9384156,31.4539167 Z M25.6057327,37.8836354 C25.4301301,38.0403333 25.1777333,38.0510521 24.9806283,37.9453958 C24.1015911,37.2170312 23.9444191,36.8806667 23.4641996,36.1880312 C22.012278,37.662625 20.9837482,38.1046458 19.1033152,38.1046458 C16.8762846,38.1046458 15.1443203,36.7346875 15.1443203,33.9947708 C15.1443203,31.8535729 16.3074958,30.3978646 17.9652258,29.6843021 C19.4002526,29.0564896 21.4045802,28.9421563 22.9384156,28.7711667 L22.9384156,28.4286771 C22.9384156,27.8003542 22.9880758,27.0582083 22.616904,26.5161458 C22.2953925,26.0307396 21.6764315,25.8306563 21.1327289,25.8306563 C20.1236536,25.8306563 19.2266978,26.3461771 19.0065546,27.4144792 C18.9604781,27.6523333 18.7869233,27.887125 18.5468135,27.899375 L15.9834245,27.6227292 C15.766865,27.5737292 15.5257313,27.4006979 15.5887025,27.0714792 C16.1774577,23.9701875 18.9860761,23.0335729 21.5033887,23.0335729 C22.7904588,23.0335729 24.4727629,23.3760625 25.4874697,24.3463646 C26.7740279,25.5453333 26.6501333,27.1439583 26.6501333,28.8849896 L26.6501333,32.9938437 C26.6501333,34.2295625 27.1651661,34.771625 27.6484574,35.4377187 C27.8174045,35.6776146 27.8552896,35.9629375 27.640266,36.1380104 C27.0996351,36.5897292 26.1397081,37.4211979 25.6118763,37.8897604 L25.6057327,37.8836354 L25.6057327,37.8836354 Z" id="Fill-8" fill="#111111"></path>
            <path d="M17.3923413,18.7950729 L17.3923413,10.2185417 C17.3923413,9.09511458 16.8865238,8.53314583 15.8759127,8.53314583 C14.9810047,8.53314583 14.0768815,8.74803125 13.1655908,9.17780208 L13.1655908,18.7950729 L9.53578682,18.7950729 L9.53578682,10.2185417 C9.53578682,9.09511458 9.02996928,8.53314583 8.01884618,8.53314583 C7.09066076,8.53314583 6.17885811,8.75619792 5.28395016,9.20230208 L5.28395016,18.7950729 L1.65363424,18.7950729 L1.65363424,6.12857292 L4.6378553,6.12857292 L4.96039077,7.34336458 C5.83891596,6.76455208 6.63040777,6.35570833 7.33537815,6.1158125 C8.03932462,5.8769375 8.76477345,5.75647917 9.51070072,5.75647917 C11.0025553,5.75647917 12.0551472,6.28578125 12.6684766,7.34336458 C13.5132123,6.78139583 14.3093118,6.37663542 15.0552391,6.12857292 C15.8011663,5.88051042 16.5716677,5.75647917 17.3677672,5.75647917 C18.527359,5.75647917 19.4268746,6.0790625 20.0647781,6.72320833 C20.7026816,7.36786458 21.0221453,8.26875 21.0221453,9.42535417 L21.0221453,18.7950729 L17.3923413,18.7950729" id="Fill-9" fill="#EC9030"></path>
            <path d="M34.845606,18.2249375 C34.2660661,18.5225104 33.5738948,18.7542396 32.7701159,18.9191042 C31.965825,19.0839688 31.1328644,19.1671667 30.2712339,19.1671667 C28.16605,19.1671667 26.562588,18.5970313 25.4598238,17.4567604 C24.3575716,16.3164896 23.8067015,14.6474271 23.8067015,12.4495729 C23.8067015,10.3344063 24.353476,8.69035417 25.4480487,7.51690625 C26.5421095,6.34345833 28.0585382,5.75647917 29.9978467,5.75647917 C31.6386819,5.75647917 32.9027138,6.20717708 33.7894304,7.10755208 C34.675635,8.0084375 35.1195052,9.29315625 35.1195052,10.9622188 C35.1195052,11.3261458 35.0949311,11.7390729 35.0447589,12.2015104 C34.9950987,12.6644583 34.9367351,13.0442083 34.8706921,13.3417813 L27.1631183,13.3417813 C27.2291613,14.4325417 27.561424,15.2216458 28.1578586,15.7090938 C28.7548052,16.1965417 29.6906701,16.4405208 30.967501,16.4405208 C32.0774326,16.4405208 33.3706462,16.2338021 34.845606,15.820875 L34.845606,18.2249375 L34.845606,18.2249375 Z M32.0113896,10.6896563 C32.0113896,9.07010417 31.2987398,8.26058333 29.8734402,8.26058333 C29.0614699,8.26058333 28.4189588,8.5045625 27.9464187,8.9915 C27.4743906,9.47894792 27.2045871,10.185875 27.1385442,11.11075 L32.0113896,11.11075 L32.0113896,10.6896563 L32.0113896,10.6896563 Z" id="Fill-10" fill="#EC9030"></path>
            <path d="M37.9035495,18.7950729 L37.9035495,6.12857292 L40.8872586,6.12857292 L41.3347126,8.01252083 C41.9977021,7.2856875 42.6233186,6.76914583 43.2120738,6.46340625 C43.800317,6.15766667 44.4259335,6.00454167 45.088923,6.00454167 C45.4037791,6.00454167 45.7355299,6.02955208 46.0836634,6.0790625 L46.0836634,9.42535417 C45.6193147,9.32633333 45.1053058,9.2763125 44.5421486,9.2763125 C43.4644706,9.2763125 42.4615389,9.46669792 41.5338654,9.84695833 L41.5338654,18.7950729 L37.9035495,18.7950729" id="Fill-11" fill="#EC9030"></path>
            <path d="M57.147654,18.2499479 C56.7002,18.5143438 56.161105,18.7169792 55.5319049,18.8573438 C54.9011688,18.9971979 54.2468826,19.0676354 53.5675103,19.0676354 C51.5447521,19.0676354 49.9996536,18.5061771 48.9301669,17.3822396 C47.8611922,16.2583021 47.3267049,14.6392604 47.3267049,12.5240938 C47.3267049,10.4252604 47.890374,8.789375 49.0172003,7.61592708 C50.1445386,6.44247917 51.7111394,5.85601042 53.7164909,5.85601042 C54.9262549,5.85601042 56.0454018,6.12040625 57.0729077,6.64919792 L57.0729077,9.05326042 C56.0945501,8.77304167 55.1996421,8.63216667 54.3876719,8.63216667 C53.2275681,8.63216667 52.374129,8.92565625 51.8268426,9.512125 C51.2800682,10.0991042 51.006681,11.0285729 51.006681,12.3010417 L51.006681,12.6476146 C51.006681,13.90375 51.2754606,14.8250521 51.8145556,15.4115208 C52.3531386,15.9985 53.1860993,16.2919896 54.3134375,16.2919896 C55.1254078,16.2919896 56.069976,16.1429479 57.147654,15.845375 L57.147654,18.2499479" id="Fill-12" fill="#EC9030"></path>
            <path d="M67.8880852,18.7950729 L67.8880852,10.4911042 C67.8880852,9.81378125 67.7391045,9.31816667 67.4406312,9.00375 C67.1421579,8.69035417 66.6865126,8.53314583 66.0736952,8.53314583 C65.1613806,8.53314583 64.2587932,8.81438542 63.3633733,9.37584375 L63.3633733,18.7950729 L59.7335693,18.7950729 L59.7335693,0.452229167 L63.3633733,0.452229167 L63.3633733,7.26884375 C64.7886729,6.26128125 66.2805275,5.75647917 67.8389369,5.75647917 C69.0154235,5.75647917 69.9231304,6.07497917 70.5610339,6.71095833 C71.1989374,7.34744792 71.5184011,8.25241667 71.5184011,9.42535417 L71.5184011,18.7950729 L67.8880852,18.7950729" id="Fill-13" fill="#EC9030"></path>
            <path d="M2.02275817,26.803 C2.29768126,26.4523437 2.59666653,26.1833542 2.92073788,25.9975625 C3.24429728,25.8117708 3.58219158,25.7183646 3.93442079,25.7183646 C4.37112358,25.7183646 4.70697004,25.878125 4.94298409,26.1976458 C5.17899814,26.5171667 5.29726115,26.9821562 5.29726115,27.5926146 C5.29726115,28.2597292 5.16107951,28.879375 4.89076406,29.4510417 C4.61891274,30.0232187 4.23903763,30.4831042 3.74960285,30.8306979 C3.26016807,31.1782917 2.70213051,31.3513229 2.07600212,31.3513229 C1.79442354,31.3513229 1.4898067,31.3145729 1.16215162,31.2415833 C0.835008499,31.1675729 0.516568716,31.0639583 0.20632031,30.9302292 L1.67411269,23.4230208 L2.68830756,23.4230208 L2.02275817,26.803 L2.02275817,26.803 Z M1.30498876,30.4463542 C1.63571561,30.5167917 1.90347124,30.5515 2.10723175,30.5515 C2.50195373,30.5515 2.86083844,30.4335937 3.18490979,30.1988021 C3.50846919,29.9640104 3.76905737,29.626625 3.96616238,29.1876667 C4.16326739,28.7492187 4.26207587,28.2633021 4.26207587,27.7299167 C4.26207587,26.943875 4.0158226,26.5503437 3.5228041,26.5503437 C3.02261813,26.5503437 2.45946096,26.9469375 1.83282062,27.740125 L1.30498876,30.4463542 L1.30498876,30.4463542 Z" id="Fill-14" fill="#111111"></path>
            <path d="M7.93744437,30.2988438 C8.28916162,29.6883854 8.6536779,28.9824792 9.03048124,28.1821458 C9.40677263,27.3823229 9.73647555,26.6136354 10.0175422,25.8765937 L11.0634786,25.8765937 C10.8100579,26.515125 10.5003215,27.1980625 10.1342693,27.9243854 C9.76770518,28.6507083 9.38936595,29.3458958 8.99873966,30.0089271 C8.6076014,30.6724688 8.25434827,31.20075 7.93744437,31.5937708 C7.49408609,32.1557396 7.07632586,32.5870417 6.68621152,32.8886979 C6.29507327,33.1908646 5.877825,33.4011563 5.43446672,33.5205938 L4.97984529,32.8044792 C5.48719871,32.6222604 5.877825,32.4328958 6.15274809,32.2363854 C6.48347494,31.9975104 6.83877592,31.6499167 7.21916299,31.1941146 L6.13175769,25.8765937 L7.19817259,25.8765937 L7.93744437,30.2988438" id="Fill-15" fill="#111111"></path>
        </g>
    </g>
</svg>