<svg width="72" height="61" viewBox="0 0 72 61" fill="none" xmlns="http://www.w3.org/2000/svg">
<path d="M21.7969 60.4691H16.1719C15.0069 60.4691 14.0625 59.5247 14.0625 58.3598V36.5629H23.9062V58.3598C23.9062 59.5247 22.9618 60.4691 21.7969 60.4691Z" fill="#57697D"/>
<path d="M10.5469 37.9687H2.10938C0.944437 37.9687 0 37.0243 0 35.8593V18.9843C0 17.8194 0.944437 16.875 2.10938 16.875H10.5469C11.7118 16.875 12.6562 17.8194 12.6562 18.9843V35.8593C12.6562 37.0243 11.7118 37.9687 10.5469 37.9687Z" fill="#FFE278"/>
<path d="M0 27.4223V35.8598C0 37.0247 0.944437 37.9691 2.10938 37.9691H10.5469C11.7118 37.9691 12.6562 37.0247 12.6562 35.8598V27.4223H0Z" fill="#F5A622"/>
<path d="M61.4531 37.9687C60.2882 37.9687 59.3438 37.0243 59.3438 35.8593V18.9843C59.3438 17.8194 60.2882 16.875 61.4531 16.875C67.2687 16.875 72 21.6063 72 27.4218C72 33.2374 67.2687 37.9687 61.4531 37.9687Z" fill="#00C3FF"/>
<path d="M59.3438 35.8598C59.3438 37.0247 60.2882 37.9691 61.4531 37.9691C67.2687 37.9691 72 33.2378 72 27.4223H59.3438V35.8598Z" fill="#00AAF0"/>
<path d="M61.4535 54.8439C60.948 54.8439 60.4486 54.6622 60.0553 54.314C51.0067 46.3066 39.3761 41.5307 27.306 40.8664C26.1877 40.8048 25.3125 39.88 25.3125 38.7601V16.0839C25.3125 14.9639 26.1877 14.0392 27.306 13.9776C39.3761 13.3131 51.0067 8.53738 60.0553 0.529906C60.6766 -0.0200782 61.5627 -0.154797 62.3195 0.186219C63.0761 0.526953 63.5626 1.27972 63.5626 2.10955V52.7345C63.5626 53.5644 63.0761 54.317 62.3195 54.6579C62.0418 54.7828 61.7466 54.8439 61.4535 54.8439V54.8439Z" fill="#F4F1F1"/>
<path d="M25.3125 27.4223V38.7604C25.3125 39.8804 26.1877 40.8051 27.306 40.8667C39.3761 41.5312 51.0067 46.3069 60.0553 54.3144C60.4486 54.6626 60.9481 54.8443 61.4535 54.8443C61.7466 54.8443 62.0418 54.7831 62.3194 54.6581C63.0759 54.3174 63.5625 53.5646 63.5625 52.7348V27.4223H25.3125Z" fill="#DAD5D3"/>
<path d="M27.422 40.8693C27.3835 40.8693 27.3447 40.8683 27.306 40.8662C26.2814 40.8098 25.2845 40.7812 24.3432 40.7812H10.5469C9.38194 40.7812 8.4375 39.8368 8.4375 38.6719V16.1719C8.4375 15.0069 9.38194 14.0625 10.5469 14.0625H24.343C25.2844 14.0625 26.2813 14.0339 27.3059 13.9775L27.422 40.8693Z" fill="#00C3FF"/>
<path d="M8.4375 38.6722C8.4375 39.8372 9.38194 40.7816 10.5469 40.7816H24.343C25.2844 40.7816 26.2813 40.8102 27.3059 40.8665C27.3445 40.8687 27.3833 40.8696 27.4219 40.8696L27.3638 27.4221H8.4375V38.6722Z" fill="#00AAF0"/>
</svg>
