<svg width="97" height="59" viewBox="0 0 97 59" fill="none" xmlns="http://www.w3.org/2000/svg">
<path d="M90.6026 26.3032H71.2376L67.2539 48.8958H91.72C92.5031 48.8958 93.1733 48.3337 93.3092 47.5622L95.9194 32.7582C96.5481 29.1932 94.1677 26.3032 90.6026 26.3032Z" fill="#C7CFE2"/>
<path d="M70.6684 29.5303H90.0334C91.8161 29.5303 93.0062 30.9752 92.6919 32.7578L89.8465 48.8953H67.2539L70.6684 29.5303Z" fill="#AFB9D2"/>
<path d="M89.7168 48.8954C89.8966 43.4232 85.9454 39.2129 80.256 39.2129C74.5667 39.2129 69.1307 43.4232 67.3809 48.8954H89.7168Z" fill="#959CB5"/>
<path d="M87.5618 6.93799H74.6518L73.5137 13.393H90.588C90.9796 13.393 91.3145 13.1117 91.3826 12.7263L91.5496 11.7793C92.021 9.1055 90.2355 6.93799 87.5618 6.93799Z" fill="#C7CFE2"/>
<path d="M86.3337 50.5092C85.548 54.9654 81.2984 58.578 76.8422 58.578C72.386 58.578 69.4105 54.9654 70.1961 50.5092C70.9817 46.053 75.2314 42.4404 79.6876 42.4404C84.1438 42.4404 87.1193 46.0528 86.3337 50.5092Z" fill="#5B5D6E"/>
<path d="M90.6014 26.3031L89.6502 13.3931H73.5127L71.2363 26.3031H90.6014Z" fill="#B4E6FF"/>
<path d="M83.1057 50.5092C82.6343 53.183 80.0845 55.3505 77.4107 55.3505C74.737 55.3505 72.9518 53.183 73.4231 50.5092C73.8945 47.8355 76.4443 45.668 79.1181 45.668C81.7916 45.668 83.577 47.8355 83.1057 50.5092Z" fill="#C7CFE2"/>
<path d="M79.8777 50.5093C79.7205 51.4004 78.8706 52.123 77.9793 52.123C77.0878 52.123 76.493 51.4004 76.6502 50.5093C76.8073 49.6181 77.6572 48.8955 78.5485 48.8955C79.4397 48.8955 80.0348 49.6181 79.8777 50.5093Z" fill="#7F8499"/>
<path d="M79.3987 16.6206H89.8881L89.6502 13.3931H73.5127L71.2363 26.3031H76.0776L77.5003 18.2343C77.6574 17.3432 78.5074 16.6206 79.3987 16.6206Z" fill="#9BD6FF"/>
<path d="M74.0829 10.1655H86.9929C87.8841 10.1655 88.4792 10.8882 88.3221 11.7793L88.0375 13.393H73.5137L74.0829 10.1655Z" fill="#AFB9D2"/>
<path d="M91.0777 32.7578H95.919L94.7807 39.2128H89.9395L91.0777 32.7578Z" fill="#F1F4FB"/>
<path d="M87.8498 32.7578L87.2808 35.9853C86.9665 37.7678 88.1566 39.2128 89.9393 39.2128H91.553L92.6911 32.7578H87.8498Z" fill="#AFB9D2"/>
<path d="M74.175 0.48291H19.3073C18.4162 0.48291 17.5661 1.20554 17.409 2.09667L11.7181 34.3718H6.87668C5.98462 34.3718 5.13543 35.0944 4.97831 35.9855C4.82118 36.8766 5.41558 37.5993 6.30745 37.5993H17.6037C18.4958 37.5993 19.09 38.3219 18.9329 39.213C18.7757 40.1042 17.9266 40.8268 17.0345 40.8268H10.5795L9.44139 47.2818C9.28426 48.1729 9.8794 48.8956 10.7705 48.8956H67.252L75.504 2.09667C75.6613 1.20517 75.0663 0.48291 74.175 0.48291Z" fill="#6E6E6E"/>
<path d="M35.7058 40.8266C34.194 39.8175 32.3419 39.2129 30.2299 39.2129C28.1179 39.2129 26.0527 39.8175 24.1849 40.8266H2.51144C1.61939 40.8266 0.7702 41.5493 0.613074 42.4404C0.455948 43.3315 1.05034 44.0542 1.94221 44.0542H10.011L9.44194 47.2817C9.28482 48.1728 9.87996 48.8954 10.7711 48.8954H67.2525L68.6752 40.8266H35.7058Z" fill="#5A5A5A"/>
<path d="M36.3063 50.5092C35.5207 54.9654 31.271 58.578 26.8148 58.578C22.3587 58.578 19.3831 54.9654 20.1688 50.5092C20.9544 46.053 25.2041 42.4404 29.6603 42.4404C34.1164 42.4404 37.0921 46.0528 36.3063 50.5092Z" fill="#5B5D6E"/>
<path d="M33.0803 50.5092C32.6089 53.183 30.0591 55.3505 27.3854 55.3505C24.7116 55.3505 22.9264 53.183 23.3978 50.5092C23.8691 47.8355 26.4189 45.668 29.0927 45.668C31.7666 45.668 33.5517 47.8355 33.0803 50.5092Z" fill="#C7CFE2"/>
<path d="M29.8523 50.5093C29.6952 51.4004 28.8452 52.123 27.9539 52.123C27.0628 52.123 26.4676 51.4004 26.6248 50.5093C26.7819 49.6181 27.6318 48.8955 28.5231 48.8955C29.4145 48.8955 30.0094 49.6181 29.8523 50.5093Z" fill="#7F8499"/>
<path d="M63.7932 28.2395L58.1918 23.3983C57.5734 22.8656 56.5367 23.0074 55.8765 23.7215C55.215 24.4337 55.1816 25.4456 55.8014 25.9798L58.0414 27.9167H20.4568C19.5647 27.9167 18.7157 28.6384 18.5584 29.5305C18.4011 30.4225 18.9957 31.1442 19.8876 31.1442H57.4723L54.5492 33.0812C53.741 33.6154 53.4178 34.6271 53.8279 35.3395C54.07 35.7635 54.5145 35.9855 55.006 35.9855C55.3434 35.9855 55.7007 35.88 56.0289 35.6623L63.3376 30.821C63.7978 30.5168 64.1219 30.0378 64.2112 29.5305C64.3005 29.0231 64.1462 28.5437 63.7932 28.2395Z" fill="white"/>
</svg>
