<svg width="73" height="73" viewBox="0 0 73 73" fill="none" xmlns="http://www.w3.org/2000/svg">
<path d="M69.9857 60.8637H3.31902C1.84611 60.8637 0.652344 59.6698 0.652344 58.197V10.1969C0.652344 8.72418 1.84611 7.53027 3.31902 7.53027H69.9857C71.4584 7.53027 72.6523 8.72404 72.6523 10.1969V58.1969C72.6523 59.6698 71.4586 60.8637 69.9857 60.8637Z" fill="#5A5A5A"/>
<path d="M0.652344 52.8638V58.1971C0.652344 59.6697 1.84639 60.8638 3.31902 60.8638H29.8375L28.6523 71.5305H44.6524L43.4672 60.8638H69.9857C71.4583 60.8638 72.6523 59.6697 72.6523 58.1971V52.8638H0.652344Z" fill="#6E6E6E"/>
<path d="M65.9864 54.197H7.31959C6.58328 54.197 5.98633 53.6 5.98633 52.8636V14.197C5.98633 13.4607 6.58328 12.8638 7.31959 12.8638H65.9862C66.7225 12.8638 67.3195 13.4607 67.3195 14.197V52.8637C67.3196 53.6 66.7227 54.197 65.9864 54.197Z" fill="white"/>
<path d="M49.9863 72.8638H23.3196C22.5826 72.8638 21.9863 72.2674 21.9863 71.5305C21.9863 70.7937 22.5827 70.1973 23.3196 70.1973H49.9863C50.7233 70.1973 51.3196 70.7937 51.3196 71.5305C51.3196 72.2674 50.7233 72.8638 49.9863 72.8638Z" fill="#6E6E6E"/>
<path d="M43.467 60.8638H29.8373L29.541 63.5304H43.7633L43.467 60.8638Z" fill="#5A5A5A"/>
<path d="M56.6529 47.5305H16.653C15.1802 47.5305 13.9863 46.3366 13.9863 44.8638V39.5304C13.9863 38.0577 15.1801 36.8638 16.653 36.8638H56.6529C58.1257 36.8638 59.3196 38.0575 59.3196 39.5304V44.8638C59.3196 46.3366 58.1258 47.5305 56.6529 47.5305Z" fill="#707487"/>
<path d="M55.319 43.5303H17.9856C17.2493 43.5303 16.6523 42.9333 16.6523 42.197C16.6523 41.4607 17.2493 40.8638 17.9856 40.8638H55.319C56.0553 40.8638 56.6523 41.4607 56.6523 42.197C56.6523 42.9333 56.0553 43.5303 55.319 43.5303Z" fill="#464655"/>
<path d="M52.6517 0.86377H20.6516C19.9153 0.86377 19.3184 1.46072 19.3184 2.19704V43.5304H53.9851V2.19704C53.985 1.46072 53.388 0.86377 52.6517 0.86377Z" fill="#00C3FF"/>
<path d="M53.9851 40.8638H19.3184V43.5304H53.9851V40.8638Z" fill="#00AAF0"/>
<path d="M31.3196 15.5305C30.5826 15.5305 29.9863 14.9342 29.9863 14.1973V7.53053C29.9863 6.79352 30.5827 6.19727 31.3196 6.19727C32.0566 6.19727 32.6529 6.79366 32.6529 7.53053V14.1971C32.653 14.9343 32.0566 15.5305 31.3196 15.5305Z" fill="white"/>
<path d="M31.3196 27.5304C30.5826 27.5304 29.9863 26.934 29.9863 26.1971V19.5305C29.9863 18.7935 30.5827 18.1973 31.3196 18.1973C32.0566 18.1973 32.6529 18.7937 32.6529 19.5305V26.1971C32.653 26.934 32.0566 27.5304 31.3196 27.5304Z" fill="white"/>
<path d="M31.3196 39.5304C30.5826 39.5304 29.9863 38.934 29.9863 38.1971V31.5305C29.9863 30.7935 30.5827 30.1973 31.3196 30.1973C32.0566 30.1973 32.6529 30.7937 32.6529 31.5305V38.1971C32.653 38.934 32.0566 39.5304 31.3196 39.5304Z" fill="white"/>
<path d="M45.9851 18.1968H40.6518C39.9155 18.1968 39.3184 17.5999 39.3184 16.8636V8.86354C39.3184 8.12723 39.9153 7.53027 40.6518 7.53027H45.9851C46.7214 7.53027 47.3185 8.12723 47.3185 8.86354V16.8636C47.3185 17.5999 46.7216 18.1968 45.9851 18.1968Z" fill="#FFC850"/>
<path d="M31.3196 42.1973C30.5826 42.1973 29.9863 42.7937 29.9863 43.5305H32.653C32.653 42.7937 32.0566 42.1973 31.3196 42.1973Z" fill="#E4EAF8"/>
<path d="M27.3189 7.53053C27.3189 6.79352 26.7225 6.19727 25.9856 6.19727C25.2487 6.19727 24.6523 6.79366 24.6523 7.53053V43.5305H27.319V7.53053H27.3189Z" fill="white"/>
<path d="M27.319 40.8638H24.6523V43.5304H27.319V40.8638Z" fill="#E4EAF8"/>
<path d="M47.3184 11.5303H39.3184V14.1969H41.985V15.5302C41.985 16.2665 42.582 16.8635 43.3183 16.8635C44.0546 16.8635 44.6516 16.2665 44.6516 15.5302V14.1969H47.3182V11.5303H47.3184Z" fill="#E1A546"/>
<path d="M43.3183 36.8636C45.5274 36.8636 47.3182 35.0728 47.3182 32.8637C47.3182 30.6546 45.5274 28.8638 43.3183 28.8638C41.1092 28.8638 39.3184 30.6546 39.3184 32.8637C39.3184 35.0728 41.1092 36.8636 43.3183 36.8636Z" fill="#00AAF0"/>
<path d="M47.3182 40.8637C47.3182 38.6545 45.5274 36.8638 43.3183 36.8638C41.1092 36.8638 39.3184 38.6546 39.3184 40.8637C39.3184 41.8929 39.7179 42.8215 40.3566 43.5304H46.2804C46.9187 42.8216 47.3182 41.8929 47.3182 40.8637Z" fill="#FFC850"/>
<path d="M39.3184 40.8638C39.3184 41.893 39.7179 42.8216 40.3566 43.5304H46.2804C46.9189 42.8216 47.3186 41.893 47.3186 40.8638H39.3184Z" fill="#E1A546"/>
</svg>
